<?xml version="1.0" standalone="no"?>
<!DOCTYPE svg PUBLIC "-//W3C//DTD SVG 20010904//EN"
 "http://www.w3.org/TR/2001/REC-SVG-20010904/DTD/svg10.dtd">
<svg version="1.0" xmlns="http://www.w3.org/2000/svg"
 width="128.000000pt" height="128.000000pt" viewBox="0 0 128.000000 128.000000"
 preserveAspectRatio="xMidYMid meet">

<g transform="translate(0.000000,128.000000) scale(0.100000,-0.100000)"
fill="#000000" stroke="none">
<path d="M352 927 c-149 -149 -272 -279 -272 -288 0 -19 20 -39 39 -39 9 0
130 114 268 252 l253 253 253 -253 c138 -138 259 -252 268 -252 19 0 39 20 39
40 0 20 -540 560 -560 560 -8 0 -138 -123 -288 -273z"/>
<path d="M212 548 c-8 -8 -12 -59 -12 -163 0 -140 2 -155 23 -196 13 -24 43
-57 66 -74 l43 -30 307 0 307 0 41 27 c22 15 51 44 64 65 23 36 24 47 24 202
0 145 -2 165 -17 175 -13 8 -23 8 -35 0 -16 -10 -19 -33 -23 -167 l-5 -157
-33 -32 -32 -33 -291 0 -291 0 -34 37 -34 38 0 148 c0 151 -5 172 -40 172 -9
0 -21 -5 -28 -12z"/>
</g>
</svg>
