<svg xmlns="http://www.w3.org/2000/svg" width="29" height="25" viewBox="0 0 29 25">
  <g id="Group_10322" data-name="Group 10322" transform="translate(-1.5 -4.5)">
    <path id="Path_5486" data-name="Path 5486" d="M23.26,27H7a3,3,0,0,1-3-3V10a3,3,0,0,1,.33-1.37,1,1,0,1,0-1.78-.9A5,5,0,0,0,2,10V24a5,5,0,0,0,5,5H23.26a1,1,0,0,0,0-2ZM25,5H9.74a1,1,0,0,0,0,2H25a3,3,0,0,1,3,3V24a2.86,2.86,0,0,1-.11.8,1,1,0,0,0,.65,1.25.79.79,0,0,0,.3.05,1,1,0,0,0,.95-.7A4.51,4.51,0,0,0,30,24V10A5,5,0,0,0,25,5Z" fill="#fff" stroke="#000" stroke-width="1"/>
    <path id="Path_5487" data-name="Path 5487" d="M13,22a1,1,0,0,0,.45-.11l8-4a1,1,0,0,0,0-1.78l-8-4A1,1,0,0,0,12,13v8a1,1,0,0,0,1,1Zm1-7.38L18.76,17,14,19.38Z" fill="#fff" stroke="#000" stroke-width="1"/>
  </g>
</svg>
