<?xml version="1.0" standalone="no"?>
<!DOCTYPE svg PUBLIC "-//W3C//DTD SVG 20010904//EN"
 "http://www.w3.org/TR/2001/REC-SVG-20010904/DTD/svg10.dtd">
<svg version="1.0" xmlns="http://www.w3.org/2000/svg"
 width="128.000000pt" height="128.000000pt" viewBox="0 0 128.000000 128.000000"
 preserveAspectRatio="xMidYMid meet">

<g transform="translate(0.000000,128.000000) scale(0.100000,-0.100000)"
fill="#000000" stroke="none">
<path d="M417 976 c-79 -29 -107 -75 -107 -176 0 -68 1 -70 25 -70 24 0 25 2
25 71 0 65 2 73 29 100 l29 29 234 0 234 0 29 -30 c26 -27 30 -39 33 -103 l4
-72 -44 43 c-43 41 -45 42 -61 24 -16 -17 -13 -22 56 -90 l72 -72 73 73 c73
73 73 73 52 92 -20 18 -21 18 -60 -20 l-40 -39 0 59 c-1 79 -26 135 -76 166
-38 23 -46 24 -254 26 -164 2 -224 0 -253 -11z"/>
<path d="M255 560 c-65 -66 -68 -71 -52 -87 16 -16 19 -15 55 20 21 20 41 37
45 37 4 0 7 -29 7 -64 0 -73 23 -117 80 -150 33 -20 51 -21 265 -21 222 0 231
1 267 23 50 31 78 92 78 170 0 59 -1 62 -24 62 -22 0 -24 -4 -28 -70 -3 -60
-7 -73 -33 -100 l-29 -30 -234 0 -234 0 -29 29 c-26 26 -29 36 -29 92 l0 63
40 -39 c38 -37 41 -38 57 -22 16 16 13 21 -52 87 -38 39 -72 70 -75 70 -3 0
-37 -31 -75 -70z"/>
</g>
</svg>
