<?xml version="1.0" standalone="no"?>
<!DOCTYPE svg PUBLIC "-//W3C//DTD SVG 20010904//EN"
 "http://www.w3.org/TR/2001/REC-SVG-20010904/DTD/svg10.dtd">
<svg version="1.0" xmlns="http://www.w3.org/2000/svg"
 width="512.000000pt" height="512.000000pt" viewBox="0 0 512.000000 512.000000"
 preserveAspectRatio="xMidYMid meet">

<g transform="translate(0.000000,512.000000) scale(0.100000,-0.100000)"
fill="#000000" stroke="none">
<path d="M1600 4799 c-202 -23 -396 -80 -585 -173 -376 -185 -656 -466 -835
-839 -314 -651 -209 -1416 269 -1964 248 -283 603 -492 971 -571 170 -37 273
-42 835 -42 511 0 546 -1 552 -18 23 -66 94 -201 150 -286 78 -119 232 -276
344 -353 146 -100 327 -178 509 -218 56 -13 144 -18 350 -22 l275 -5 -166 169
c-172 174 -205 215 -258 320 -57 114 -82 222 -88 379 l-6 141 29 7 c61 16 263
120 369 191 268 180 464 398 604 675 194 381 248 788 159 1200 -45 209 -144
442 -267 625 -291 436 -775 727 -1303 784 -117 13 -1795 13 -1908 0z m2015
-318 c610 -137 1047 -576 1176 -1181 32 -150 33 -429 1 -576 -67 -311 -196
-549 -416 -770 -189 -189 -375 -300 -633 -380 l-123 -38 0 -216 c0 -289 23
-434 95 -597 18 -40 21 -53 10 -53 -7 0 -62 25 -122 54 -281 142 -465 376
-553 703 l-22 82 -711 4 c-694 3 -715 4 -812 26 -609 136 -1047 576 -1176
1181 -33 151 -33 429 0 580 100 467 380 834 801 1049 151 77 316 128 490 150
36 5 477 8 980 7 910 -2 916 -2 1015 -25z"/>
</g>
</svg>
