<?xml version="1.0" standalone="no"?>
<!DOCTYPE svg PUBLIC "-//W3C//DTD SVG 20010904//EN"
 "http://www.w3.org/TR/2001/REC-SVG-20010904/DTD/svg10.dtd">
<svg version="1.0" xmlns="http://www.w3.org/2000/svg"
 width="512.000000pt" height="512.000000pt" viewBox="0 0 512.000000 512.000000"
 preserveAspectRatio="xMidYMid meet">
<metadata>
Created by potrace 1.16, written by Peter Selinger 2001-2019
</metadata>
<g transform="translate(0.000000,512.000000) scale(0.100000,-0.100000)"
fill="#000000" stroke="none">
<path d="M2415 4049 c-268 -37 -511 -161 -693 -353 -134 -142 -224 -303 -279
-502 -26 -93 -28 -111 -27 -294 0 -179 2 -203 26 -293 54 -198 157 -376 303
-522 144 -145 323 -248 522 -303 91 -24 112 -26 298 -26 221 0 271 9 440 77
237 95 461 300 582 533 232 446 149 994 -205 1350 -162 163 -363 272 -591 319
-94 19 -285 27 -376 14z m385 -208 c270 -70 507 -264 630 -516 76 -155 95
-239 94 -425 0 -168 -8 -213 -66 -364 -87 -224 -307 -443 -541 -535 -524 -207
-1110 75 -1281 616 -88 282 -36 604 138 847 138 193 356 334 596 387 115 26
309 21 430 -10z"/>
<path d="M1917 1550 c-55 -43 -40 -136 24 -159 22 -8 216 -11 621 -11 628 0
642 1 667 48 22 41 13 88 -20 116 l-31 26 -617 0 c-608 0 -619 0 -644 -20z"/>
<path d="M2154 1240 c-55 -22 -71 -99 -30 -147 l24 -28 405 -3 405 -3 31 27
c26 21 31 33 31 69 0 36 -5 48 -31 69 l-31 26 -391 -1 c-216 0 -402 -4 -413
-9z"/>
</g>
</svg>
