<?xml version="1.0" standalone="no"?>
<!DOCTYPE svg PUBLIC "-//W3C//DTD SVG 20010904//EN"
 "http://www.w3.org/TR/2001/REC-SVG-20010904/DTD/svg10.dtd">
<svg version="1.0" xmlns="http://www.w3.org/2000/svg"
 width="512.000000pt" height="512.000000pt" viewBox="0 0 512.000000 512.000000"
 preserveAspectRatio="xMidYMid meet">

<g transform="translate(0.000000,512.000000) scale(0.100000,-0.100000)"
fill="#000000" stroke="none">
<path d="M2752 4222 c-29 -11 -70 -33 -90 -49 -20 -16 -181 -230 -357 -475
-348 -486 -411 -567 -538 -703 -74 -78 -86 -87 -92 -70 -21 62 -32 82 -59 113
-16 18 -48 43 -70 55 -39 21 -54 22 -266 22 -200 0 -229 -2 -260 -19 -49 -26
-88 -64 -113 -111 l-22 -40 0 -945 0 -945 22 -40 c25 -47 64 -85 113 -111 31
-17 60 -19 260 -19 l225 0 48 28 c58 34 100 90 116 152 l12 46 52 -47 c75 -68
160 -121 236 -147 65 -22 74 -22 711 -25 419 -2 661 1 693 8 121 26 248 121
304 227 68 130 593 1323 608 1382 13 49 16 99 13 220 -3 134 -6 163 -25 203
-30 66 -102 139 -170 174 l-58 29 -551 5 -552 5 121 300 122 300 0 110 c0 104
-2 114 -32 175 -62 126 -160 197 -281 206 -50 3 -81 0 -120 -14z m194 -177
c50 -38 84 -114 84 -189 0 -54 -15 -98 -145 -423 -80 -200 -145 -371 -145
-379 0 -9 13 -29 29 -45 l29 -29 598 0 c589 0 598 0 642 -21 71 -35 93 -79
104 -211 7 -76 6 -132 -2 -177 -15 -89 -587 -1382 -637 -1440 -18 -22 -59 -52
-91 -68 l-57 -28 -614 -3 c-417 -2 -632 1 -668 8 -99 21 -162 62 -281 184
l-112 114 0 672 0 671 139 142 c201 204 242 256 601 761 237 332 334 460 360
476 48 29 116 23 166 -15z m-1473 -1096 c14 -6 30 -22 36 -36 8 -17 11 -283
11 -913 0 -630 -3 -896 -11 -913 -19 -41 -49 -47 -229 -47 -180 0 -210 6 -229
47 -16 34 -16 1792 0 1827 6 13 21 29 33 34 29 15 358 15 389 1z"/>
</g>
</svg>
