<?xml version="1.0" standalone="no"?>
<!DOCTYPE svg PUBLIC "-//W3C//DTD SVG 20010904//EN"
 "http://www.w3.org/TR/2001/REC-SVG-20010904/DTD/svg10.dtd">
<svg version="1.0" xmlns="http://www.w3.org/2000/svg"
 width="512.000000pt" height="512.000000pt" viewBox="0 0 512.000000 512.000000"
 preserveAspectRatio="xMidYMid meet">

<g transform="translate(0.000000,512.000000) scale(0.100000,-0.100000)"
fill="#000000" stroke="none">
<path d="M2265 4615 c-16 -15 -25 -36 -25 -55 0 -19 9 -40 25 -55 l24 -25 271
0 271 0 24 25 c16 15 25 36 25 55 0 19 -9 40 -25 55 l-24 25 -271 0 -271 0
-24 -25z"/>
<path d="M2370 4305 c-508 -85 -900 -454 -1014 -955 -9 -36 -43 -330 -76 -655
-63 -614 -75 -686 -129 -794 -16 -32 -90 -138 -163 -237 -167 -224 -182 -257
-183 -385 0 -90 2 -99 37 -171 45 -91 103 -147 196 -191 l67 -32 1455 0 1455
0 67 32 c93 44 151 100 196 191 35 72 37 81 37 171 -1 128 -16 161 -183 385
-73 99 -147 205 -163 237 -54 108 -66 180 -129 794 -33 325 -69 626 -80 671
-110 469 -482 830 -955 929 -109 23 -327 28 -435 10z m453 -179 c381 -98 680
-397 776 -776 14 -55 42 -285 81 -664 63 -613 74 -684 121 -798 39 -95 65
-136 212 -332 149 -200 166 -244 135 -350 -16 -55 -99 -138 -154 -154 -32 -9
-370 -12 -1436 -12 -1577 0 -1453 -6 -1531 80 -63 70 -81 146 -56 231 7 21 68
113 136 205 147 196 173 237 212 332 47 113 58 185 121 797 34 323 69 615 79
660 98 405 434 720 858 800 117 22 320 14 446 -19z"/>
<path d="M2183 774 c-24 -24 -25 -30 -20 -91 13 -139 96 -257 225 -321 72 -35
81 -37 172 -37 91 0 100 2 172 37 129 64 212 182 225 321 5 61 4 67 -20 91
-51 51 -137 17 -137 -55 0 -123 -117 -239 -240 -239 -123 0 -240 116 -240 239
0 72 -86 106 -137 55z"/>
</g>
</svg>
