<?xml version="1.0" standalone="no"?>
<!DOCTYPE svg PUBLIC "-//W3C//DTD SVG 20010904//EN"
 "http://www.w3.org/TR/2001/REC-SVG-20010904/DTD/svg10.dtd">
<svg version="1.0" xmlns="http://www.w3.org/2000/svg"
 width="512.000000pt" height="512.000000pt" viewBox="0 0 512.000000 512.000000"
 preserveAspectRatio="xMidYMid meet">
<metadata>
Created by potrace 1.16, written by Peter Selinger 2001-2019
</metadata>
<g transform="translate(0.000000,512.000000) scale(0.100000,-0.100000)"
fill="#000000" stroke="none">
<path d="M1028 4781 c-140 -55 -246 -180 -277 -329 -16 -75 -16 -3709 0 -3784
28 -131 121 -253 237 -310 63 -31 73 -33 178 -33 104 0 114 2 170 31 32 17
684 432 1449 922 1023 655 1406 906 1451 949 73 70 118 157 136 261 25 148
-26 300 -136 405 -81 78 -2876 1870 -2950 1892 -70 21 -199 19 -258 -4z m205
-218 c54 -27 2820 -1804 2845 -1827 94 -85 94 -267 0 -352 -25 -23 -2791
-1800 -2845 -1827 -36 -19 -89 -22 -127 -7 -44 16 -104 79 -123 128 -17 45
-18 136 -18 1882 0 1729 1 1838 18 1881 42 110 161 168 250 122z"/>
</g>
</svg>
