<?xml version="1.0" standalone="no"?>
<!DOCTYPE svg PUBLIC "-//W3C//DTD SVG 20010904//EN"
 "http://www.w3.org/TR/2001/REC-SVG-20010904/DTD/svg10.dtd">
<svg version="1.0" xmlns="http://www.w3.org/2000/svg"
 width="512.000000pt" height="512.000000pt" viewBox="0 0 512.000000 512.000000"
 preserveAspectRatio="xMidYMid meet">

<g transform="translate(0.000000,512.000000) scale(0.100000,-0.100000)"
fill="#000000" stroke="none">
<path d="M3935 4786 c-89 -39 -123 -165 -65 -239 11 -13 79 -69 152 -123 l132
-99 -1585 -5 c-1441 -5 -1589 -7 -1639 -22 -109 -33 -170 -60 -243 -108 -174
-113 -285 -269 -345 -485 -15 -54 -17 -150 -17 -952 0 -885 0 -892 21 -919 39
-53 71 -69 134 -69 63 0 95 16 134 69 21 27 21 38 26 909 5 874 5 882 27 934
68 166 198 280 357 313 35 7 550 9 1590 8 l1539 -3 -136 -102 c-75 -57 -144
-114 -153 -128 -9 -13 -18 -42 -21 -63 -15 -109 81 -199 190 -178 40 7 716
510 744 553 24 37 24 129 0 166 -20 30 -683 532 -723 547 -35 14 -83 12 -119
-4z"/>
<path d="M4575 3346 c-37 -17 -70 -52 -84 -89 -8 -19 -11 -298 -11 -871 0
-915 1 -895 -56 -1008 -59 -116 -197 -221 -326 -247 -37 -8 -516 -10 -1592 -9
l-1539 3 136 102 c75 57 144 114 153 128 9 13 18 42 21 63 15 112 -89 204
-197 176 -42 -12 -711 -511 -737 -551 -24 -37 -24 -129 0 -166 28 -43 704
-546 744 -553 109 -21 205 69 190 178 -3 21 -12 50 -21 63 -9 14 -78 71 -153
128 l-136 102 1584 5 c1441 5 1589 7 1639 22 109 33 170 60 243 108 174 113
285 269 345 485 15 54 17 150 17 952 0 885 0 892 -21 919 -11 15 -32 37 -46
47 -34 25 -113 32 -153 13z"/>
</g>
</svg>
