<?xml version="1.0" standalone="no"?>
<!DOCTYPE svg PUBLIC "-//W3C//DTD SVG 20010904//EN"
 "http://www.w3.org/TR/2001/REC-SVG-20010904/DTD/svg10.dtd">
<svg version="1.0" xmlns="http://www.w3.org/2000/svg"
 width="512.000000pt" height="512.000000pt" viewBox="0 0 512.000000 512.000000"
 preserveAspectRatio="xMidYMid meet">

<g transform="translate(0.000000,512.000000) scale(0.100000,-0.100000)"
fill="#000000" stroke="none">
<path d="M2145 5103 c-294 -25 -576 -104 -840 -233 -690 -338 -1163 -987
-1282 -1760 -24 -160 -24 -510 1 -670 77 -499 292 -930 640 -1288 377 -388
851 -622 1396 -692 118 -16 425 -16 545 -1 444 56 855 228 1185 497 l77 62
504 -494 c354 -347 514 -497 538 -505 124 -41 243 79 202 204 -9 26 -138 158
-509 523 -273 268 -499 492 -500 496 -2 5 21 39 51 76 141 172 291 436 371
655 158 427 184 932 71 1378 -81 319 -241 637 -450 894 -84 103 -248 268 -350
351 -408 333 -949 519 -1485 512 -69 -1 -143 -3 -165 -5z m376 -323 c714 -72
1315 -491 1623 -1131 390 -808 195 -1782 -474 -2376 -248 -221 -570 -385 -891
-457 -170 -37 -263 -47 -448 -47 -314 0 -581 59 -856 190 -226 108 -386 221
-566 400 -228 228 -384 481 -484 784 -317 964 121 2002 1030 2442 237 115 437
169 725 198 79 8 244 6 341 -3z"/>
</g>
</svg>
