<svg id="svg" version="1.1" xmlns="http://www.w3.org/2000/svg" xmlns:xlink="http://www.w3.org/1999/xlink" width="400" height="400" viewBox="0, 0, 400,400"><g id="svgg"><path id="path0" d="M72.000 129.656 C 61.910 130.830,50.878 133.155,51.399 133.999 C 51.515 134.186,52.159 134.459,52.832 134.607 C 53.504 134.755,54.537 135.127,55.127 135.435 C 55.717 135.743,56.403 135.996,56.651 135.998 C 56.899 135.999,57.302 136.241,57.546 136.535 C 57.791 136.830,58.668 137.277,59.495 137.530 C 62.905 138.572,69.209 145.490,71.769 151.000 C 72.383 152.320,73.406 154.440,74.042 155.712 C 74.679 156.984,75.200 158.523,75.200 159.132 C 75.200 160.627,76.043 162.318,76.900 162.542 C 77.291 162.644,77.600 163.102,77.600 163.578 C 77.600 164.047,78.410 166.198,79.400 168.358 C 80.390 170.517,81.201 172.535,81.202 172.842 C 81.204 173.149,81.493 173.940,81.846 174.600 C 82.199 175.260,82.635 176.250,82.817 176.800 C 82.998 177.350,83.626 179.060,84.212 180.600 C 84.798 182.140,85.597 184.268,85.987 185.328 C 86.377 186.388,86.899 187.459,87.148 187.708 C 87.397 187.957,87.600 188.718,87.600 189.400 C 87.600 190.082,87.780 190.820,87.999 191.039 C 88.548 191.588,91.601 197.949,91.594 198.530 C 91.591 198.788,92.115 200.080,92.759 201.400 C 95.159 206.321,97.600 211.562,97.600 211.795 C 97.600 211.927,98.027 212.495,98.549 213.058 C 99.071 213.621,99.703 214.768,99.955 215.607 C 100.206 216.445,100.994 217.746,101.706 218.498 C 102.418 219.249,103.720 220.801,104.600 221.946 C 106.424 224.319,106.171 224.053,110.256 227.900 C 111.950 229.495,113.644 230.800,114.019 230.800 C 114.395 230.800,114.926 231.070,115.199 231.399 C 115.473 231.729,117.610 232.913,119.948 234.031 C 122.287 235.150,124.470 236.297,124.800 236.581 C 125.130 236.864,126.373 237.220,127.563 237.370 C 128.752 237.521,130.192 237.882,130.763 238.172 C 131.333 238.462,133.060 238.830,134.600 238.989 C 136.140 239.148,137.619 239.458,137.886 239.677 C 138.475 240.159,153.526 240.324,158.521 239.903 C 163.125 239.514,164.472 238.822,163.000 237.600 C 162.670 237.326,162.400 236.608,162.400 236.005 C 162.400 235.402,162.040 234.450,161.600 233.891 C 161.160 233.331,160.800 232.687,160.800 232.458 C 160.800 232.230,160.182 230.989,159.428 229.701 C 158.673 228.414,157.933 226.872,157.783 226.276 C 157.634 225.680,157.351 225.094,157.156 224.973 C 156.960 224.852,156.800 224.482,156.800 224.151 C 156.800 223.820,155.900 221.665,154.800 219.361 C 153.700 217.058,152.800 214.786,152.800 214.312 C 152.800 213.839,152.470 213.080,152.067 212.626 C 151.174 211.620,150.001 208.536,149.998 207.187 C 149.997 206.644,149.568 205.355,149.044 204.323 C 148.520 203.291,147.694 201.131,147.207 199.523 C 146.721 197.915,146.195 196.420,146.040 196.200 C 145.884 195.980,145.247 194.090,144.625 192.000 C 144.002 189.910,143.252 187.660,142.959 187.000 C 142.254 185.419,139.730 178.128,139.357 176.600 C 139.196 175.940,138.740 174.866,138.344 174.213 C 137.947 173.560,137.504 172.231,137.358 171.260 C 137.212 170.288,136.746 169.146,136.322 168.722 C 135.417 167.817,134.000 164.670,134.000 163.567 C 134.000 163.145,133.836 162.800,133.636 162.800 C 133.435 162.800,132.861 161.945,132.359 160.900 C 131.857 159.855,130.401 157.253,129.123 155.118 C 127.845 152.983,126.800 151.114,126.800 150.964 C 126.800 150.814,126.350 150.275,125.800 149.765 C 125.250 149.255,124.800 148.470,124.800 148.019 C 124.800 147.569,124.539 147.200,124.220 147.200 C 123.902 147.200,123.149 146.525,122.548 145.700 C 120.670 143.124,115.052 137.600,114.309 137.600 C 113.919 137.600,113.266 137.266,112.858 136.858 C 112.088 136.088,107.348 133.833,105.600 133.404 C 104.598 133.158,101.209 131.819,99.905 131.154 C 99.523 130.959,98.443 130.798,97.505 130.795 C 96.567 130.792,94.090 130.434,92.000 130.000 C 87.862 129.140,77.907 128.969,72.000 129.656 M152.800 130.020 C 144.618 130.390,132.982 132.279,129.223 133.849 L 127.846 134.424 129.823 135.747 C 130.910 136.475,132.404 137.189,133.142 137.334 C 134.411 137.582,135.315 138.213,137.395 140.300 C 137.888 140.795,138.469 141.200,138.686 141.200 C 138.903 141.200,140.050 142.325,141.234 143.700 C 142.419 145.075,143.886 146.740,144.493 147.400 C 145.100 148.060,145.597 148.825,145.598 149.100 C 145.599 149.375,145.764 149.600,145.965 149.600 C 146.768 149.600,152.156 160.069,154.199 165.600 C 154.565 166.590,155.192 168.210,155.592 169.200 C 155.992 170.190,156.556 171.810,156.846 172.800 C 157.136 173.790,157.583 174.780,157.839 175.000 C 158.095 175.220,158.626 176.480,159.019 177.800 C 159.411 179.120,160.302 181.372,160.997 182.804 C 161.693 184.236,162.384 186.021,162.534 186.771 C 162.684 187.521,163.236 189.049,163.761 190.167 C 165.905 194.733,167.137 197.553,168.230 200.400 C 168.863 202.050,170.151 204.981,171.091 206.914 C 172.031 208.846,172.800 210.710,172.800 211.056 C 172.800 211.402,173.243 212.211,173.784 212.854 C 174.325 213.497,174.889 214.693,175.036 215.512 C 175.184 216.330,175.475 217.215,175.683 217.478 C 176.359 218.332,178.468 222.339,179.746 225.200 C 180.680 227.289,183.014 231.096,184.871 233.560 C 185.932 234.967,186.800 236.324,186.800 236.573 C 186.800 236.823,187.332 237.341,187.981 237.725 C 188.631 238.109,190.296 239.493,191.681 240.802 C 193.067 242.110,194.310 243.185,194.445 243.190 C 194.580 243.196,195.390 243.759,196.245 244.441 C 197.100 245.124,198.994 246.285,200.453 247.022 C 201.911 247.759,203.395 248.652,203.748 249.006 C 204.102 249.359,205.069 249.752,205.896 249.879 C 206.723 250.005,207.670 250.325,208.000 250.590 C 208.882 251.298,212.757 252.727,214.600 253.024 C 215.480 253.166,218.450 253.819,221.200 254.475 C 228.593 256.238,250.617 256.293,252.996 254.554 C 253.839 253.937,253.342 251.348,252.198 250.398 C 251.869 250.125,251.600 249.630,251.600 249.298 C 251.600 248.966,251.259 248.133,250.842 247.447 C 250.426 246.761,249.960 245.435,249.807 244.500 C 249.655 243.565,249.393 242.800,249.226 242.800 C 248.907 242.800,247.844 240.511,247.368 238.800 C 247.215 238.250,246.755 237.371,246.345 236.846 C 245.935 236.321,245.598 235.691,245.595 235.446 C 245.592 235.201,244.781 233.316,243.792 231.258 C 242.803 229.200,241.881 227.040,241.743 226.458 C 241.605 225.876,241.270 225.130,240.999 224.800 C 240.727 224.470,240.406 223.750,240.285 223.200 C 239.961 221.723,238.869 218.744,238.233 217.600 C 237.927 217.050,237.544 215.700,237.382 214.600 C 237.220 213.500,236.753 212.171,236.344 211.646 C 235.935 211.121,235.600 210.302,235.600 209.826 C 235.600 209.350,235.441 208.789,235.247 208.580 C 234.761 208.056,232.400 201.497,232.400 200.671 C 232.400 200.302,232.223 200.000,232.008 200.000 C 231.792 200.000,231.503 199.505,231.366 198.900 C 230.850 196.627,229.641 192.938,228.844 191.200 C 228.389 190.210,228.014 189.010,228.009 188.533 C 228.004 188.057,227.865 187.607,227.700 187.533 C 227.367 187.385,225.783 183.092,225.142 180.600 C 224.915 179.720,224.398 178.280,223.993 177.400 C 223.587 176.520,222.613 174.410,221.828 172.711 C 221.042 171.013,220.394 169.483,220.386 169.311 C 220.362 168.800,217.459 163.131,216.288 161.308 C 215.689 160.377,215.200 159.432,215.200 159.208 C 215.200 158.984,215.056 158.800,214.880 158.800 C 214.704 158.800,214.164 157.987,213.682 156.993 C 213.199 155.999,212.083 154.404,211.202 153.448 C 210.321 152.493,209.600 151.572,209.600 151.404 C 209.600 150.964,206.294 147.067,204.677 145.600 C 203.257 144.311,201.001 142.157,200.176 141.300 C 199.699 140.805,199.138 140.400,198.930 140.400 C 198.722 140.400,197.979 139.840,197.279 139.155 C 196.579 138.471,195.059 137.414,193.903 136.807 C 192.746 136.200,191.260 135.415,190.600 135.062 C 183.092 131.050,169.663 129.259,152.800 130.020 M237.497 132.219 C 237.331 132.395,236.791 132.574,236.297 132.616 C 230.888 133.078,225.666 133.740,225.105 134.035 C 224.723 134.236,224.077 134.400,223.669 134.400 C 223.262 134.400,221.520 134.760,219.800 135.200 C 218.080 135.640,215.846 136.006,214.836 136.013 C 213.238 136.024,211.140 136.898,211.629 137.349 C 211.723 137.436,213.420 138.357,215.400 139.396 C 222.139 142.932,226.292 146.366,230.157 151.600 C 232.717 155.066,236.400 161.141,236.400 161.897 C 236.400 162.126,236.670 162.418,237.000 162.545 C 237.330 162.671,237.600 163.240,237.600 163.808 C 237.600 164.377,237.955 165.507,238.389 166.321 C 240.008 169.355,241.600 173.142,241.600 173.957 C 241.600 174.421,241.751 174.800,241.936 174.800 C 242.121 174.800,242.510 175.565,242.800 176.500 C 243.091 177.435,244.020 179.688,244.864 181.508 C 245.709 183.327,246.400 185.069,246.400 185.380 C 246.400 185.690,247.183 187.632,248.141 189.695 C 249.099 191.758,250.014 194.156,250.175 195.023 C 250.336 195.890,250.723 196.885,251.035 197.232 C 251.347 197.580,252.075 199.200,252.654 200.832 C 254.620 206.381,255.027 207.399,255.674 208.400 C 256.030 208.950,256.444 209.989,256.595 210.709 C 256.745 211.430,258.091 214.453,259.586 217.429 C 261.081 220.404,262.422 223.580,262.567 224.486 C 262.712 225.393,263.086 226.329,263.397 226.567 C 264.055 227.070,268.400 235.746,268.400 236.556 C 268.400 236.856,268.654 237.313,268.966 237.571 C 269.277 237.830,269.911 238.797,270.376 239.720 C 271.686 242.323,273.786 245.621,274.361 245.976 C 274.646 246.152,275.002 246.905,275.150 247.648 C 275.338 248.587,275.784 249.193,276.610 249.633 C 277.265 249.980,278.880 251.335,280.200 252.642 C 283.773 256.181,289.176 260.326,293.367 262.742 C 296.561 264.583,301.168 266.800,301.803 266.800 C 302.157 266.800,304.012 267.316,305.924 267.947 C 311.093 269.652,313.025 270.049,321.716 271.191 C 328.211 272.044,348.016 271.432,350.300 270.308 C 351.316 269.808,351.504 268.350,350.645 267.637 C 350.339 267.383,349.968 266.202,349.819 265.012 C 349.639 263.574,349.348 262.807,348.951 262.724 C 348.623 262.656,347.636 260.980,346.759 259.000 C 345.881 257.020,344.812 254.668,344.382 253.774 C 343.952 252.879,343.600 251.765,343.600 251.297 C 343.600 250.830,343.418 250.335,343.196 250.198 C 342.743 249.918,338.800 241.941,338.800 241.305 C 338.800 241.081,338.554 240.694,338.254 240.445 C 337.953 240.195,337.597 239.182,337.461 238.193 C 337.325 237.203,336.944 235.982,336.614 235.478 C 335.925 234.426,333.600 228.292,333.324 226.800 C 333.223 226.250,332.985 225.440,332.795 225.000 C 331.672 222.397,329.296 216.037,327.747 211.487 C 326.761 208.595,325.769 206.003,325.541 205.729 C 325.313 205.454,325.026 204.119,324.903 202.762 C 324.725 200.804,324.525 200.253,323.935 200.099 C 323.526 199.992,323.089 199.431,322.963 198.852 C 322.838 198.273,322.284 196.540,321.732 195.000 C 321.181 193.460,320.467 191.300,320.146 190.200 C 319.825 189.100,319.392 187.888,319.183 187.508 C 318.974 187.127,318.351 185.507,317.798 183.908 C 317.246 182.308,316.345 180.114,315.797 179.032 C 315.249 177.950,314.800 176.744,314.800 176.353 C 314.800 175.961,314.354 175.160,313.809 174.572 C 313.264 173.984,312.698 172.849,312.551 172.051 C 312.405 171.253,311.906 170.145,311.442 169.588 C 310.979 169.031,310.258 167.816,309.839 166.888 C 309.421 165.960,308.927 165.200,308.741 165.200 C 308.556 165.200,308.035 164.416,307.585 163.457 C 307.134 162.498,306.451 161.373,306.066 160.957 C 305.681 160.541,304.801 159.390,304.109 158.400 C 303.416 157.410,302.254 155.954,301.525 155.164 C 299.810 153.304,298.400 151.343,298.400 150.816 C 298.400 150.587,298.228 150.400,298.018 150.400 C 297.807 150.400,296.470 149.275,295.046 147.900 C 291.925 144.887,291.449 144.485,289.062 142.842 C 288.038 142.138,287.200 141.390,287.200 141.181 C 287.200 140.971,286.906 140.800,286.547 140.800 C 285.775 140.800,283.300 139.366,282.284 138.330 C 281.888 137.925,280.997 137.599,280.284 137.597 C 279.578 137.596,278.460 137.237,277.800 136.800 C 277.140 136.363,276.279 136.004,275.887 136.003 C 275.496 136.001,275.075 135.739,274.952 135.419 C 274.823 135.083,273.942 134.735,272.865 134.594 C 271.130 134.366,268.636 133.902,263.200 132.794 C 260.590 132.263,237.935 131.755,237.497 132.219 " stroke="none" fill="#5efbbb" fill-rule="evenodd"></path><path id="path1" d="M0.000 200.000 L 0.000 400.000 200.000 400.000 L 400.000 400.000 400.000 200.000 L 400.000 0.000 200.000 0.000 L 0.000 0.000 0.000 200.000 M90.800 127.988 C 97.483 128.740,99.474 129.194,105.400 131.324 C 110.158 133.034,116.000 136.068,116.000 136.830 C 116.000 137.033,116.287 137.200,116.639 137.200 C 117.502 137.200,125.200 145.214,125.200 146.112 C 125.200 146.504,125.474 146.930,125.809 147.059 C 126.743 147.417,130.474 153.458,134.172 160.600 C 134.627 161.480,135.094 162.290,135.210 162.400 C 135.758 162.923,137.600 166.963,137.600 167.643 C 137.600 168.066,138.140 169.369,138.800 170.538 C 139.460 171.708,140.000 173.130,140.000 173.699 C 140.000 174.268,140.135 174.793,140.300 174.867 C 140.465 174.940,141.041 176.350,141.581 178.000 C 142.121 179.650,142.882 181.720,143.272 182.600 C 143.663 183.480,143.986 184.863,143.991 185.673 C 143.998 186.733,144.201 187.210,144.718 187.374 C 145.204 187.528,145.581 188.298,145.888 189.760 C 146.137 190.947,146.894 193.301,147.570 194.990 C 148.247 196.679,148.800 198.412,148.800 198.843 C 148.800 199.273,149.048 199.720,149.351 199.837 C 149.686 199.965,150.008 200.980,150.171 202.424 C 150.319 203.731,150.582 204.800,150.757 204.800 C 151.064 204.800,152.210 207.645,153.900 212.600 C 154.972 215.742,156.469 219.235,157.262 220.445 C 157.610 220.977,158.029 222.039,158.194 222.806 C 158.358 223.573,158.676 224.428,158.900 224.706 C 159.610 225.587,162.796 232.571,162.798 233.251 C 162.799 233.609,163.080 234.135,163.423 234.419 C 163.766 234.704,164.297 235.536,164.603 236.268 C 164.909 237.001,165.348 237.600,165.580 237.600 C 166.301 237.600,166.039 239.407,165.184 240.325 C 164.431 241.133,163.596 241.420,162.600 241.211 C 162.380 241.165,159.564 241.349,156.343 241.621 C 150.358 242.125,137.741 241.658,134.400 240.809 C 133.630 240.613,131.920 240.183,130.600 239.853 C 129.280 239.523,127.390 238.885,126.400 238.435 C 125.410 237.986,124.105 237.614,123.501 237.609 C 122.474 237.601,113.768 233.034,112.369 231.770 C 112.021 231.457,111.576 231.200,111.379 231.200 C 110.844 231.200,106.000 226.297,106.000 225.755 C 106.000 225.497,105.595 225.177,105.100 225.042 C 104.166 224.788,100.294 219.956,99.815 218.447 C 99.664 217.973,99.014 217.007,98.369 216.301 C 97.724 215.595,97.086 214.653,96.951 214.209 C 96.816 213.764,96.491 213.130,96.228 212.800 C 95.966 212.470,94.616 209.680,93.230 206.600 C 91.843 203.520,90.020 199.526,89.177 197.724 C 88.335 195.923,87.518 193.767,87.361 192.934 C 87.205 192.101,86.835 191.178,86.539 190.882 C 86.243 190.586,85.887 189.862,85.747 189.272 C 85.607 188.682,85.262 187.930,84.980 187.600 C 84.698 187.270,83.890 185.290,83.185 183.200 C 82.480 181.110,81.761 179.220,81.587 179.000 C 81.414 178.780,81.140 177.880,80.978 177.000 C 80.817 176.120,80.513 175.288,80.303 175.152 C 79.972 174.937,78.425 171.391,75.567 164.296 C 75.145 163.248,74.800 161.918,74.800 161.340 C 74.800 160.761,74.555 160.088,74.255 159.844 C 73.955 159.600,72.863 157.510,71.828 155.200 C 70.792 152.890,69.823 150.802,69.673 150.560 C 67.171 146.520,62.560 141.336,60.769 140.549 C 60.202 140.300,59.098 139.535,58.316 138.848 C 57.534 138.162,56.623 137.600,56.291 137.600 C 55.959 137.600,54.903 137.244,53.944 136.809 C 52.985 136.374,51.750 136.000,51.200 135.980 C 49.776 135.925,47.800 134.665,47.800 133.811 C 47.800 132.971,48.327 132.661,50.800 132.046 C 51.790 131.800,54.310 131.166,56.400 130.637 C 60.310 129.646,66.262 128.517,70.304 127.999 C 73.738 127.559,86.919 127.552,90.800 127.988 M174.800 128.707 C 175.570 128.954,177.550 129.369,179.200 129.630 C 180.850 129.890,182.971 130.350,183.914 130.652 C 184.857 130.953,185.971 131.200,186.390 131.200 C 186.810 131.200,187.250 131.358,187.370 131.551 C 187.489 131.744,188.384 132.102,189.359 132.348 C 190.334 132.594,191.642 133.221,192.266 133.743 C 192.890 134.264,194.165 135.079,195.100 135.553 C 196.035 136.028,196.800 136.584,196.800 136.790 C 196.800 136.996,197.443 137.284,198.229 137.432 C 199.225 137.619,199.767 137.988,200.019 138.650 C 200.218 139.172,200.577 139.600,200.818 139.600 C 201.863 139.600,212.054 150.675,212.600 152.405 C 212.773 152.952,213.237 153.627,213.630 153.904 C 215.331 155.101,223.275 169.972,224.216 173.720 C 224.366 174.318,224.649 174.906,224.844 175.027 C 225.040 175.148,225.200 175.856,225.200 176.600 C 225.200 177.344,225.397 178.075,225.638 178.223 C 226.210 178.577,228.226 183.083,228.596 184.834 C 228.755 185.585,229.111 186.740,229.388 187.400 C 230.442 189.912,231.169 191.911,232.224 195.200 C 232.824 197.070,233.629 199.320,234.012 200.200 C 234.395 201.080,235.102 203.048,235.583 204.574 C 236.065 206.100,236.715 207.715,237.029 208.163 C 237.343 208.611,237.600 209.739,237.600 210.669 C 237.600 211.655,237.823 212.494,238.135 212.680 C 238.608 212.963,240.777 218.488,242.187 223.000 C 242.961 225.478,243.632 227.054,245.900 231.723 C 247.055 234.101,248.000 236.284,248.000 236.574 C 248.000 236.865,248.246 237.306,248.547 237.556 C 248.847 237.805,249.398 239.042,249.770 240.305 C 250.142 241.567,250.618 242.870,250.829 243.200 C 251.039 243.530,251.571 244.340,252.011 245.000 C 252.450 245.660,253.001 246.920,253.234 247.800 C 253.467 248.680,253.908 249.595,254.213 249.833 C 255.245 250.636,256.520 254.759,255.997 255.604 C 255.126 257.014,229.537 257.776,222.800 256.593 C 217.964 255.744,213.533 254.798,212.600 254.416 C 212.160 254.236,211.061 253.889,210.158 253.645 C 209.254 253.402,207.114 252.482,205.402 251.601 C 203.690 250.721,201.859 250.000,201.332 250.000 C 200.806 250.000,200.268 249.721,200.137 249.381 C 200.007 249.040,199.383 248.545,198.752 248.281 C 196.437 247.311,187.557 239.868,187.322 238.700 C 187.183 238.010,186.842 237.600,186.409 237.600 C 185.111 237.600,181.084 231.843,177.876 225.400 C 176.999 223.640,176.140 222.106,175.966 221.992 C 175.487 221.677,174.800 219.671,174.800 218.588 C 174.800 218.060,174.472 217.453,174.072 217.238 C 173.671 217.024,173.017 216.073,172.617 215.124 C 172.217 214.176,171.544 212.613,171.120 211.650 C 170.696 210.688,169.998 209.010,169.569 207.922 C 169.140 206.834,168.342 205.102,167.795 204.075 C 167.248 203.047,166.800 201.859,166.800 201.435 C 166.800 201.010,166.567 200.379,166.281 200.031 C 165.996 199.684,165.355 198.320,164.857 197.000 C 164.359 195.680,163.612 193.880,163.198 193.000 C 162.783 192.120,162.348 190.681,162.231 189.801 C 162.114 188.922,161.787 188.022,161.504 187.801 C 161.221 187.581,160.203 185.420,159.242 183.000 C 158.282 180.580,157.339 178.429,157.148 178.220 C 156.956 178.011,156.800 177.311,156.800 176.664 C 156.800 176.017,156.562 175.288,156.271 175.044 C 155.980 174.800,155.238 173.250,154.623 171.600 C 154.008 169.950,152.986 167.536,152.352 166.236 C 151.718 164.936,151.200 163.653,151.200 163.385 C 151.200 163.117,150.930 162.674,150.600 162.400 C 150.265 162.122,150.000 161.250,150.000 160.422 C 150.000 159.400,149.632 158.456,148.811 157.371 C 148.157 156.507,147.617 155.602,147.611 155.360 C 147.605 155.118,147.060 154.175,146.400 153.263 C 145.740 152.352,145.200 151.501,145.200 151.372 C 145.200 151.055,140.708 145.604,139.619 144.600 C 139.142 144.160,138.268 143.329,137.676 142.753 C 137.084 142.178,135.658 141.069,134.507 140.289 C 133.356 139.510,132.129 138.586,131.779 138.236 C 131.429 137.886,130.705 137.600,130.170 137.600 C 129.635 137.600,128.525 137.240,127.704 136.800 C 126.884 136.360,125.669 135.994,125.006 135.987 C 121.469 135.950,121.782 133.708,125.438 132.888 C 126.737 132.597,128.700 132.082,129.800 131.743 C 130.900 131.404,132.970 131.030,134.400 130.911 C 135.830 130.793,137.240 130.505,137.533 130.271 C 138.148 129.782,137.815 129.833,144.600 129.188 C 147.460 128.916,149.958 128.550,150.152 128.375 C 150.698 127.880,173.166 128.183,174.800 128.707 M265.600 131.326 C 268.056 131.708,274.636 133.342,274.980 133.654 C 275.189 133.844,275.677 134.000,276.065 134.000 C 277.192 134.000,281.227 135.627,281.988 136.388 C 282.371 136.771,283.135 137.197,283.686 137.336 C 285.121 137.696,288.562 139.905,290.949 142.000 C 292.077 142.990,294.125 144.682,295.500 145.759 C 296.875 146.836,298.000 147.831,298.000 147.970 C 298.000 148.221,299.294 149.753,301.741 152.400 C 303.585 154.394,306.400 158.196,306.400 158.694 C 306.400 158.925,306.673 159.219,307.006 159.347 C 307.339 159.475,307.769 159.989,307.961 160.490 C 308.154 160.990,308.961 162.363,309.755 163.540 C 310.550 164.717,311.200 165.910,311.200 166.191 C 311.200 166.472,311.458 166.917,311.774 167.179 C 312.090 167.441,312.467 168.195,312.612 168.855 C 312.757 169.514,313.120 170.148,313.419 170.263 C 313.718 170.378,314.313 171.220,314.741 172.136 C 315.169 173.051,316.064 174.970,316.729 176.400 C 317.395 177.830,318.069 179.540,318.227 180.200 C 318.385 180.860,318.939 182.249,319.457 183.287 C 319.976 184.324,320.400 185.629,320.400 186.187 C 320.400 186.744,320.546 187.200,320.724 187.200 C 320.902 187.200,321.340 188.055,321.698 189.100 C 322.056 190.145,322.829 192.260,323.417 193.800 C 324.005 195.340,324.692 197.609,324.943 198.842 C 325.194 200.075,325.632 201.363,325.917 201.703 C 326.201 202.043,327.213 204.544,328.167 207.261 C 329.121 209.977,330.003 212.470,330.128 212.800 C 330.562 213.945,332.354 219.014,333.240 221.600 C 333.730 223.030,334.271 224.560,334.441 225.000 C 334.612 225.440,335.160 226.970,335.659 228.400 C 336.158 229.830,336.798 231.450,337.081 232.000 C 337.364 232.550,337.596 233.382,337.598 233.850 C 337.603 235.654,338.125 237.186,338.808 237.402 C 339.200 237.527,339.639 238.117,339.785 238.714 C 339.930 239.311,340.938 241.722,342.025 244.071 C 343.111 246.420,344.000 248.603,344.000 248.922 C 344.000 249.241,344.252 249.711,344.561 249.967 C 344.869 250.223,345.242 250.920,345.390 251.516 C 345.537 252.112,346.524 254.400,347.583 256.600 C 348.642 258.800,349.734 261.320,350.009 262.200 C 350.285 263.080,351.115 264.476,351.855 265.301 C 352.595 266.127,353.202 267.117,353.204 267.501 C 353.207 267.886,353.318 268.857,353.450 269.661 C 353.821 271.902,352.641 272.481,347.492 272.586 C 345.241 272.632,339.784 272.816,335.364 272.996 C 323.418 273.481,313.295 272.337,305.107 269.577 C 303.186 268.930,301.396 268.400,301.130 268.400 C 300.391 268.400,292.707 264.552,291.800 263.727 C 291.360 263.327,290.317 262.760,289.482 262.468 C 288.647 262.175,287.567 261.579,287.082 261.143 C 286.597 260.707,284.288 258.756,281.952 256.806 C 278.088 253.582,274.800 250.184,274.800 249.416 C 274.800 249.251,274.359 248.769,273.821 248.345 C 271.751 246.717,262.846 230.095,262.239 226.727 C 262.085 225.871,261.714 225.200,261.353 225.127 C 260.992 225.053,260.219 223.658,259.508 221.800 C 258.835 220.040,257.971 218.150,257.587 217.600 C 257.204 217.050,256.659 215.790,256.376 214.800 C 256.093 213.810,255.652 212.730,255.395 212.400 C 255.138 212.070,254.526 210.720,254.035 209.400 C 253.543 208.080,252.705 206.082,252.171 204.960 C 251.637 203.838,251.200 202.573,251.200 202.149 C 251.200 201.725,250.945 201.014,250.633 200.569 C 250.321 200.123,249.941 199.093,249.789 198.280 C 249.636 197.466,249.387 196.800,249.235 196.800 C 249.082 196.800,248.638 195.909,248.246 194.820 C 247.854 193.730,247.189 192.162,246.767 191.335 C 246.345 190.508,246.000 189.549,246.000 189.204 C 246.000 188.860,245.756 188.223,245.458 187.789 C 245.159 187.355,244.590 186.010,244.193 184.800 C 243.796 183.590,242.870 181.345,242.136 179.811 C 241.401 178.277,240.798 176.747,240.797 176.411 C 240.795 176.075,240.102 174.360,239.257 172.600 C 238.412 170.840,237.588 168.680,237.426 167.800 C 237.265 166.920,236.884 165.923,236.580 165.584 C 236.277 165.246,235.378 163.716,234.582 162.184 C 231.862 156.950,230.664 154.999,229.132 153.309 C 228.290 152.379,227.600 151.334,227.600 150.988 C 227.600 150.642,227.071 150.174,226.425 149.949 C 225.608 149.664,225.173 149.188,224.997 148.388 C 224.858 147.753,224.399 147.127,223.974 146.992 C 223.550 146.857,222.265 145.946,221.117 144.967 C 218.682 142.887,213.460 140.226,210.600 139.606 C 204.755 138.339,204.668 136.433,210.400 135.232 C 211.390 135.024,212.920 134.677,213.800 134.461 C 217.551 133.537,221.159 132.839,223.400 132.603 C 224.720 132.463,227.060 132.064,228.600 131.716 C 233.226 130.669,259.592 130.391,265.600 131.326 " stroke="none" fill="#fbfcfb" fill-rule="evenodd"></path><path id="path2" d="M67.400 129.028 C 61.275 129.934,56.068 131.100,57.840 131.168 C 58.302 131.185,59.202 131.023,59.840 130.806 C 64.628 129.180,81.810 127.968,88.709 128.770 C 98.102 129.862,111.592 133.807,112.337 135.679 C 112.413 135.869,113.313 136.455,114.337 136.981 C 116.463 138.073,119.074 140.489,122.748 144.766 C 124.149 146.397,125.166 147.321,125.006 146.820 C 124.608 145.566,116.612 137.636,114.400 136.301 C 113.410 135.704,112.330 135.036,112.000 134.818 C 103.538 129.208,83.643 126.625,67.400 129.028 M149.000 129.157 C 148.120 129.291,153.250 129.400,160.400 129.400 C 175.595 129.400,181.673 130.269,188.711 133.447 C 189.872 133.971,190.902 134.400,191.000 134.400 C 193.432 134.400,204.375 143.658,209.557 150.100 C 210.929 151.805,212.130 153.200,212.226 153.200 C 212.702 153.200,212.240 152.435,210.794 150.832 C 209.917 149.860,209.197 148.960,209.194 148.832 C 209.170 147.960,199.354 138.723,197.217 137.562 C 196.438 137.138,195.451 136.569,195.023 136.296 C 191.923 134.317,190.060 133.272,189.200 133.030 C 188.650 132.876,187.840 132.590,187.400 132.394 C 185.253 131.438,179.304 130.061,173.600 129.199 C 170.833 128.781,151.689 128.748,149.000 129.157 M140.531 130.159 C 138.952 130.402,137.535 130.727,137.381 130.883 C 137.227 131.038,137.708 131.070,138.450 130.953 C 139.193 130.836,141.330 130.504,143.200 130.216 C 145.093 129.924,145.891 129.698,145.000 129.705 C 144.120 129.712,142.109 129.917,140.531 130.159 M53.200 132.033 C 51.990 132.448,51.540 132.691,52.200 132.572 C 54.143 132.222,56.400 131.584,56.400 131.385 C 56.400 131.065,55.473 131.253,53.200 132.033 M133.200 131.600 C 131.796 132.050,133.263 132.065,135.400 131.623 L 137.000 131.292 135.600 131.286 C 134.830 131.283,133.750 131.424,133.200 131.600 M234.400 131.613 C 233.623 131.783,234.869 131.825,237.200 131.706 C 239.510 131.589,241.475 131.427,241.567 131.346 C 241.874 131.077,235.817 131.302,234.400 131.613 M257.000 131.624 C 258.980 131.795,262.271 132.154,264.313 132.421 C 266.356 132.688,268.126 132.807,268.247 132.686 C 268.368 132.565,267.417 132.350,266.134 132.209 C 264.850 132.068,262.936 131.783,261.880 131.576 C 260.824 131.369,258.484 131.225,256.680 131.256 L 253.400 131.312 257.000 131.624 M128.000 132.814 C 126.570 133.203,125.760 133.537,126.200 133.556 C 127.094 133.595,131.158 132.576,131.508 132.225 C 131.861 131.872,130.818 132.047,128.000 132.814 M229.000 132.400 L 227.400 132.686 229.000 132.696 C 229.880 132.701,231.140 132.568,231.800 132.400 L 233.000 132.095 231.800 132.104 C 231.140 132.109,229.880 132.242,229.000 132.400 M49.376 133.375 C 48.338 134.144,49.246 134.864,52.163 135.584 C 53.283 135.861,54.795 136.428,55.523 136.844 C 56.250 137.260,57.018 137.600,57.229 137.600 C 59.370 137.600,70.400 148.419,70.400 150.519 C 70.400 150.976,74.481 159.253,74.632 159.102 C 74.793 158.940,71.643 151.805,70.791 150.400 C 70.590 150.070,69.884 148.884,69.220 147.764 C 67.621 145.064,61.510 139.243,59.000 138.030 C 57.900 137.498,56.370 136.750,55.600 136.368 C 54.830 135.987,53.390 135.460,52.400 135.198 C 49.935 134.546,49.309 134.002,50.240 133.321 C 50.632 133.034,50.773 132.800,50.553 132.800 C 50.333 132.800,49.804 133.059,49.376 133.375 M223.600 133.200 C 222.538 133.424,222.441 133.502,223.200 133.524 C 223.750 133.541,224.920 133.405,225.800 133.223 C 227.134 132.947,227.200 132.893,226.200 132.899 C 225.540 132.902,224.370 133.038,223.600 133.200 M268.908 133.042 C 269.041 133.175,270.454 133.532,272.048 133.836 C 273.641 134.139,275.047 134.543,275.173 134.732 C 275.298 134.922,275.900 135.199,276.511 135.349 C 277.486 135.587,279.330 136.350,282.800 137.950 C 291.475 141.949,303.402 154.309,310.343 166.492 C 311.061 167.752,311.840 168.901,312.073 169.045 C 313.228 169.759,305.793 158.331,302.414 154.200 C 301.155 152.660,300.051 151.207,299.962 150.971 C 299.263 149.120,287.084 139.499,283.200 137.729 C 282.430 137.378,281.170 136.770,280.400 136.378 C 276.555 134.419,267.721 131.854,268.908 133.042 M123.649 133.961 C 122.818 134.488,123.413 135.076,125.095 135.391 C 125.922 135.547,127.654 136.118,128.943 136.660 C 130.232 137.203,131.363 137.571,131.456 137.478 C 131.686 137.248,128.195 135.780,126.070 135.214 C 124.631 134.831,124.421 134.657,124.819 134.177 C 125.378 133.504,124.597 133.361,123.649 133.961 M215.600 134.646 C 207.334 136.531,205.273 137.544,208.300 138.236 C 213.518 139.429,217.832 141.609,223.303 145.817 C 224.350 146.622,225.111 147.038,224.994 146.741 C 224.279 144.918,213.574 138.882,209.801 138.174 C 207.507 137.743,208.145 136.956,211.527 136.044 C 213.247 135.580,215.002 135.193,215.427 135.184 C 215.852 135.175,217.550 134.833,219.200 134.425 C 223.622 133.332,220.536 133.521,215.600 134.646 M133.600 138.761 C 134.370 139.436,135.497 140.216,136.105 140.494 C 136.712 140.772,137.309 141.315,137.432 141.700 C 137.554 142.085,137.781 142.400,137.937 142.400 C 139.602 142.400,150.000 156.424,150.000 158.669 C 150.000 158.931,150.517 160.282,151.150 161.672 C 151.782 163.062,153.148 166.360,154.186 169.000 C 155.223 171.640,156.237 174.070,156.439 174.400 C 156.640 174.730,156.906 175.270,157.030 175.600 C 159.885 183.201,161.410 187.073,161.667 187.373 C 162.157 187.945,161.445 185.809,159.665 181.369 C 158.777 179.152,157.931 176.864,157.786 176.285 C 157.640 175.707,157.269 175.023,156.961 174.767 C 156.652 174.511,156.400 174.068,156.400 173.781 C 156.400 173.293,154.593 168.466,153.412 165.800 C 153.119 165.140,152.221 162.996,151.415 161.036 C 147.653 151.881,141.574 143.709,135.400 139.509 C 132.571 137.584,131.977 137.337,133.600 138.761 M226.503 149.103 C 227.330 149.926,228.692 151.500,229.530 152.600 C 231.691 155.435,233.102 157.797,237.060 165.200 C 237.354 165.750,237.588 165.930,237.578 165.600 C 237.561 164.967,237.249 164.340,234.463 159.326 C 231.522 154.034,226.572 147.596,225.449 147.603 C 225.202 147.604,225.676 148.279,226.503 149.103 M125.838 148.900 C 126.257 149.395,126.696 149.890,126.812 150.000 C 126.929 150.110,127.807 151.508,128.763 153.108 C 129.719 154.707,130.703 156.140,130.950 156.292 C 131.198 156.444,131.115 156.126,130.766 155.585 C 130.418 155.043,129.618 153.700,128.988 152.600 C 127.453 149.915,125.996 148.000,125.491 148.000 C 125.263 148.000,125.419 148.405,125.838 148.900 M212.400 153.783 C 212.400 153.902,213.075 154.928,213.900 156.065 C 216.920 160.227,223.200 172.519,223.200 174.268 C 223.200 174.574,223.470 174.929,223.800 175.055 C 224.130 175.182,224.421 175.671,224.446 176.143 C 224.489 176.921,224.511 176.928,224.690 176.226 C 224.798 175.801,224.627 175.261,224.310 175.026 C 223.992 174.792,223.599 174.060,223.436 173.400 C 222.427 169.313,212.400 151.491,212.400 153.783 M131.212 157.045 C 131.205 157.289,131.888 158.740,132.728 160.269 C 133.568 161.797,134.942 164.438,135.782 166.137 C 136.621 167.836,137.394 169.140,137.498 169.035 C 137.603 168.930,137.129 167.696,136.444 166.291 C 135.760 164.886,135.200 163.520,135.200 163.256 C 135.200 162.991,134.930 162.671,134.600 162.545 C 134.270 162.418,133.998 162.109,133.995 161.857 C 133.988 161.248,131.228 156.474,131.212 157.045 M75.527 162.600 C 76.025 163.473,79.600 171.920,79.600 172.222 C 79.600 172.325,79.940 173.172,80.355 174.104 C 80.770 175.037,81.686 177.330,82.391 179.200 C 85.312 186.955,86.845 190.376,87.092 189.687 C 87.193 189.405,87.009 188.769,86.685 188.273 C 86.088 187.362,85.108 184.988,82.774 178.800 C 82.069 176.930,81.366 175.220,81.211 175.000 C 81.057 174.780,80.512 173.430,80.000 172.000 C 79.488 170.570,78.953 169.220,78.810 169.000 C 78.668 168.780,78.037 167.292,77.409 165.694 C 76.782 164.096,75.999 162.566,75.670 162.294 C 75.154 161.868,75.135 161.911,75.527 162.600 M237.616 166.738 C 237.607 167.034,237.861 167.754,238.179 168.338 C 238.661 169.222,239.852 172.182,242.853 179.955 C 243.056 180.481,243.303 180.830,243.402 180.732 C 243.572 180.562,242.547 177.607,241.413 175.000 C 241.126 174.340,240.472 172.720,239.960 171.400 C 238.745 168.266,237.636 166.061,237.616 166.738 M312.413 169.922 C 312.406 170.209,313.045 171.649,313.834 173.122 C 315.097 175.482,315.919 177.317,317.252 180.755 C 317.456 181.281,317.712 181.621,317.823 181.511 C 318.025 181.308,316.113 176.307,315.411 175.201 C 315.202 174.871,314.444 173.431,313.728 172.001 C 313.012 170.570,312.420 169.635,312.413 169.922 M137.726 170.800 C 137.831 171.130,138.368 172.480,138.919 173.800 C 139.471 175.120,140.684 178.411,141.615 181.113 C 142.546 183.815,143.396 185.937,143.504 185.829 C 143.612 185.721,143.068 183.870,142.295 181.716 C 141.522 179.562,140.396 176.408,139.793 174.706 C 138.888 172.151,137.050 168.678,137.726 170.800 M224.834 177.566 C 224.806 178.030,227.121 184.635,228.420 187.800 C 228.732 188.559,230.208 192.670,232.226 198.400 C 235.420 207.472,236.116 209.370,236.809 210.897 C 238.100 213.741,237.691 211.816,236.186 207.964 C 235.408 205.974,234.499 203.503,234.166 202.473 C 233.833 201.443,233.392 200.240,233.187 199.800 C 232.982 199.360,232.270 197.380,231.603 195.400 C 229.817 190.091,229.012 187.848,228.731 187.400 C 228.594 187.180,228.269 186.211,228.011 185.247 C 227.752 184.283,227.077 182.483,226.511 181.247 C 225.944 180.011,225.343 178.550,225.175 178.000 C 225.007 177.450,224.853 177.255,224.834 177.566 M243.727 181.900 C 243.970 182.675,246.624 189.338,247.191 190.600 C 247.389 191.040,248.097 192.660,248.764 194.200 C 249.430 195.740,249.981 196.766,249.988 196.480 C 249.995 196.193,249.271 194.213,248.380 192.080 C 247.489 189.946,246.610 187.840,246.427 187.400 C 246.243 186.960,245.602 185.385,245.002 183.900 C 244.018 181.467,243.175 180.145,243.727 181.900 M318.000 182.300 C 318.000 182.611,319.360 186.395,319.976 187.800 C 320.169 188.240,320.986 190.490,321.791 192.800 C 323.923 198.915,324.094 199.362,324.464 199.780 C 324.649 199.989,324.814 200.529,324.832 200.980 C 324.851 201.477,324.948 201.588,325.078 201.261 C 325.196 200.964,325.104 200.334,324.873 199.861 C 324.641 199.387,323.965 197.560,323.370 195.800 C 322.774 194.040,321.702 191.070,320.988 189.200 C 320.273 187.330,319.374 184.945,318.990 183.900 C 318.340 182.132,318.000 181.582,318.000 182.300 M143.646 186.833 C 143.621 187.182,143.716 187.583,143.858 187.724 C 143.999 187.866,144.702 189.741,145.420 191.891 C 146.712 195.762,149.233 202.843,149.732 204.000 C 149.874 204.330,149.882 203.790,149.750 202.800 C 149.618 201.810,149.331 200.778,149.112 200.507 C 148.625 199.904,145.176 190.225,144.905 188.700 C 144.797 188.095,144.563 187.600,144.384 187.600 C 144.205 187.600,143.976 187.285,143.876 186.900 C 143.729 186.339,143.684 186.326,143.646 186.833 M162.412 189.174 C 162.405 189.489,162.734 190.479,163.143 191.374 C 163.852 192.924,165.529 196.828,166.592 199.400 C 166.865 200.060,168.104 202.940,169.346 205.800 C 170.588 208.660,171.603 211.203,171.602 211.451 C 171.601 211.699,171.852 212.111,172.161 212.367 C 172.469 212.623,172.837 213.294,172.979 213.858 C 173.264 214.995,174.419 216.915,174.667 216.666 C 174.755 216.578,174.202 215.268,173.440 213.753 C 172.677 212.239,171.753 210.280,171.386 209.400 C 171.019 208.520,170.287 206.910,169.760 205.821 C 169.232 204.733,168.800 203.687,168.800 203.497 C 168.800 203.306,168.369 202.217,167.843 201.075 C 167.317 199.934,166.428 197.920,165.868 196.600 C 163.225 190.366,162.423 188.644,162.412 189.174 M87.601 192.146 C 87.601 192.337,88.230 193.838,89.000 195.482 C 89.770 197.126,90.400 198.573,90.400 198.697 C 90.400 198.821,90.918 200.020,91.552 201.361 C 92.185 202.703,93.104 204.700,93.594 205.800 C 96.315 211.910,100.000 218.332,100.000 216.965 C 100.000 216.727,99.280 215.505,98.400 214.249 C 97.520 212.992,96.800 211.901,96.800 211.823 C 96.800 211.746,95.836 209.639,94.658 207.141 C 93.481 204.643,92.379 202.150,92.209 201.600 C 92.040 201.050,91.764 200.420,91.596 200.200 C 91.428 199.980,90.790 198.540,90.178 197.000 C 89.088 194.256,87.604 191.461,87.601 192.146 M250.197 198.357 C 250.310 199.103,250.651 199.913,250.955 200.157 C 251.259 200.401,251.600 201.050,251.713 201.600 C 251.826 202.150,252.856 204.760,254.002 207.400 C 255.148 210.040,256.350 212.920,256.674 213.800 C 256.997 214.680,257.907 216.750,258.696 218.400 C 259.485 220.050,260.440 222.203,260.819 223.185 C 261.198 224.166,261.713 225.008,261.964 225.055 C 262.227 225.104,262.246 225.054,262.010 224.937 C 261.784 224.825,261.600 224.488,261.600 224.189 C 261.600 223.889,260.954 222.239,260.164 220.522 C 259.375 218.805,257.470 214.430,255.932 210.800 C 254.395 207.170,252.881 203.633,252.568 202.940 C 252.256 202.246,252.000 201.450,252.000 201.171 C 252.000 200.892,251.753 200.379,251.452 200.031 C 251.151 199.684,250.699 198.860,250.448 198.200 L 249.992 197.000 250.197 198.357 M325.389 203.000 C 326.518 205.944,330.653 217.383,333.993 226.800 C 336.519 233.921,337.560 236.497,337.584 235.687 C 337.593 235.405,337.317 234.505,336.971 233.687 C 336.625 232.869,335.889 230.850,335.335 229.200 C 334.781 227.550,333.276 223.320,331.991 219.800 C 330.706 216.280,328.812 211.060,327.782 208.200 C 326.753 205.340,325.724 202.820,325.496 202.600 C 325.213 202.326,325.179 202.452,325.389 203.000 M150.027 205.000 C 149.991 205.613,152.389 212.149,152.801 212.561 C 153.001 212.761,152.650 211.502,152.020 209.762 C 150.530 205.644,150.056 204.510,150.027 205.000 M237.615 213.135 C 237.576 214.504,245.271 233.679,247.528 237.836 C 247.756 238.256,248.336 239.464,248.817 240.521 C 249.298 241.577,249.755 242.378,249.833 242.300 C 250.014 242.119,248.278 237.830,247.740 237.129 C 247.517 236.838,247.093 235.970,246.799 235.200 C 246.504 234.430,245.680 232.622,244.968 231.182 C 244.255 229.742,242.831 226.322,241.802 223.582 C 238.372 214.447,237.631 212.596,237.615 213.135 M153.206 213.431 C 153.199 213.950,155.151 218.834,155.591 219.400 C 155.762 219.620,156.040 220.250,156.209 220.800 C 156.542 221.884,158.889 227.043,160.941 231.200 C 161.647 232.630,162.479 234.584,162.790 235.543 C 163.102 236.501,163.591 237.375,163.878 237.485 C 164.165 237.595,164.400 238.104,164.400 238.616 C 164.400 239.721,163.657 240.024,160.000 240.411 L 157.400 240.686 159.650 240.743 C 164.864 240.875,165.943 239.896,164.023 236.776 C 163.351 235.683,162.800 234.571,162.800 234.306 C 162.800 234.042,161.745 231.659,160.456 229.012 C 159.167 226.366,157.009 221.680,155.662 218.600 C 154.314 215.520,153.209 213.194,153.206 213.431 M100.000 217.959 C 100.000 219.439,109.422 229.151,113.200 231.565 C 117.096 234.055,122.714 236.999,124.216 237.338 C 124.867 237.485,123.561 236.717,121.313 235.631 C 119.065 234.545,116.423 233.104,115.441 232.428 C 114.459 231.753,113.496 231.200,113.300 231.200 C 112.581 231.200,105.326 224.129,102.845 221.011 C 101.439 219.245,100.224 217.725,100.145 217.633 C 100.065 217.542,100.000 217.688,100.000 217.959 M175.438 219.400 C 175.596 219.840,175.870 220.391,176.049 220.626 C 176.228 220.860,177.477 223.195,178.825 225.815 C 181.527 231.069,185.571 236.965,186.928 237.628 L 187.800 238.054 186.973 237.327 C 184.939 235.540,181.666 230.418,177.821 223.000 C 175.991 219.471,174.845 217.739,175.438 219.400 M262.411 226.269 C 262.381 227.537,270.846 243.421,273.267 246.636 C 274.110 247.756,274.800 248.871,274.800 249.113 C 274.800 249.355,274.979 249.664,275.199 249.799 C 275.891 250.227,274.854 247.984,273.646 246.442 C 272.292 244.714,268.800 238.698,268.800 238.094 C 268.800 237.859,268.665 237.607,268.500 237.533 C 268.335 237.460,266.900 234.790,265.311 231.600 C 263.723 228.410,262.418 226.011,262.411 226.269 M337.833 237.623 C 338.071 237.940,338.506 238.830,338.799 239.600 C 339.296 240.902,339.890 242.222,343.158 249.283 C 343.841 250.759,344.400 252.053,344.400 252.159 C 344.400 252.266,345.267 254.208,346.327 256.476 C 347.386 258.744,348.454 261.050,348.699 261.600 C 348.945 262.150,349.158 262.370,349.173 262.089 C 349.196 261.653,347.807 258.425,344.402 251.000 C 343.999 250.120,343.273 248.500,342.790 247.400 C 342.306 246.300,341.459 244.410,340.906 243.200 C 340.354 241.990,339.579 240.255,339.184 239.344 C 338.789 238.433,338.226 237.544,337.933 237.367 C 337.523 237.120,337.500 237.179,337.833 237.623 M127.800 238.400 C 128.680 238.807,129.760 239.146,130.200 239.152 C 130.640 239.158,130.100 238.811,129.000 238.382 C 126.486 237.400,125.667 237.412,127.800 238.400 M187.600 238.730 C 187.600 238.938,188.025 239.386,188.544 239.726 C 189.063 240.067,189.738 240.592,190.044 240.893 C 192.416 243.231,199.714 248.429,202.152 249.516 C 204.454 250.543,203.465 249.733,199.668 247.480 C 197.533 246.214,194.118 243.749,192.078 242.003 C 187.884 238.413,187.600 238.205,187.600 238.730 M131.860 239.598 C 133.166 240.125,138.941 240.897,140.034 240.691 C 140.760 240.554,140.652 240.495,139.600 240.454 C 138.830 240.424,136.789 240.130,135.065 239.800 C 131.599 239.137,130.554 239.071,131.860 239.598 M144.641 241.320 C 146.644 241.496,150.334 241.486,152.841 241.298 C 157.143 240.974,156.938 240.956,149.200 240.977 C 142.220 240.996,141.542 241.047,144.641 241.320 M250.379 244.500 C 250.952 245.933,252.393 248.945,252.819 249.600 C 254.257 251.807,255.258 255.160,254.500 255.227 C 251.167 255.521,246.220 256.321,247.523 256.355 C 249.660 256.411,254.879 255.640,255.343 255.200 C 255.750 254.813,254.240 250.583,253.392 249.735 C 253.067 249.410,252.690 248.662,252.553 248.072 C 252.303 246.990,250.514 243.600,250.193 243.600 C 250.098 243.600,250.182 244.005,250.379 244.500 M205.000 250.676 C 206.556 251.662,210.317 253.200,211.173 253.200 C 211.540 253.200,212.011 253.351,212.220 253.536 C 212.429 253.720,213.680 254.091,215.000 254.360 C 216.320 254.628,217.940 255.004,218.600 255.193 C 220.541 255.752,226.914 256.500,228.000 256.297 C 228.709 256.164,228.534 256.091,227.400 256.046 C 222.820 255.865,214.186 253.927,209.000 251.916 C 207.020 251.148,205.040 250.383,204.600 250.217 C 204.160 250.051,204.340 250.257,205.000 250.676 M277.000 251.186 C 280.417 255.042,289.298 262.400,290.535 262.400 C 291.071 262.400,291.062 262.392,286.248 258.794 C 284.075 257.170,280.835 254.489,279.048 252.836 C 277.262 251.184,276.340 250.442,277.000 251.186 M233.300 256.698 C 235.445 256.770,238.955 256.770,241.100 256.698 C 243.245 256.626,241.490 256.567,237.200 256.567 C 232.910 256.567,231.155 256.626,233.300 256.698 M292.422 263.421 C 294.991 265.326,304.454 269.279,305.040 268.693 C 305.129 268.604,304.167 268.206,302.901 267.808 C 300.165 266.949,294.302 264.270,292.767 263.176 C 291.138 262.017,290.827 262.239,292.422 263.421 M350.009 264.244 C 350.004 264.488,350.538 265.748,351.195 267.044 C 353.074 270.750,352.780 271.089,347.258 271.581 L 343.800 271.888 346.851 271.944 C 351.317 272.026,352.973 271.259,352.609 269.278 C 352.345 267.843,350.027 263.354,350.009 264.244 M305.600 268.927 C 305.600 269.672,314.675 271.597,319.200 271.812 C 322.390 271.964,322.305 271.938,317.836 271.394 C 313.849 270.908,310.229 270.144,306.300 268.957 C 305.915 268.841,305.600 268.828,305.600 268.927 M324.600 272.462 C 327.159 272.805,335.102 272.790,340.000 272.434 C 342.564 272.248,340.352 272.164,333.200 272.176 C 327.370 272.187,323.500 272.315,324.600 272.462 " stroke="none" fill="#b4fae0" fill-rule="evenodd"></path><path id="path3" d="M74.200 128.667 C 68.572 129.358,60.547 130.509,60.301 130.661 C 60.134 130.764,59.143 131.003,58.099 131.193 C 55.720 131.624,50.645 133.002,50.026 133.384 C 49.241 133.869,50.256 134.669,52.312 135.186 C 53.350 135.448,54.830 135.977,55.600 136.362 C 56.370 136.748,57.900 137.498,59.000 138.030 C 61.510 139.243,67.621 145.064,69.220 147.764 C 69.884 148.884,70.594 150.070,70.798 150.400 C 71.307 151.222,73.983 157.080,74.635 158.800 C 75.140 160.133,75.166 160.148,75.182 159.112 C 75.192 158.514,74.679 156.984,74.042 155.712 C 73.406 154.440,72.383 152.320,71.769 151.000 C 69.209 145.490,62.905 138.572,59.495 137.530 C 58.668 137.277,57.791 136.830,57.546 136.535 C 57.302 136.241,56.899 135.999,56.651 135.998 C 56.403 135.996,55.717 135.743,55.127 135.435 C 54.537 135.127,53.504 134.755,52.832 134.607 C 50.888 134.180,51.030 133.706,53.295 133.054 C 65.300 129.602,83.261 128.184,92.000 130.000 C 94.090 130.434,96.567 130.792,97.505 130.795 C 98.443 130.798,99.523 130.959,99.905 131.154 C 101.209 131.819,104.598 133.158,105.600 133.404 C 107.348 133.833,112.088 136.088,112.858 136.858 C 113.266 137.266,113.919 137.600,114.309 137.600 C 115.052 137.600,120.670 143.124,122.548 145.700 C 123.149 146.525,123.919 147.200,124.260 147.200 C 125.689 147.200,117.165 138.416,114.337 136.974 C 113.313 136.452,112.413 135.869,112.337 135.679 C 111.907 134.598,101.509 130.896,96.000 129.862 C 88.966 128.543,79.459 128.022,74.200 128.667 M148.800 129.601 C 143.322 130.079,133.239 131.809,129.200 132.962 C 127.990 133.308,126.617 133.593,126.149 133.595 C 124.280 133.606,124.226 134.723,126.070 135.213 C 136.659 138.027,145.779 147.318,151.415 161.036 C 152.221 162.996,153.119 165.140,153.412 165.800 C 154.593 168.466,156.400 173.293,156.400 173.781 C 156.400 174.068,156.652 174.511,156.961 174.767 C 157.269 175.023,157.644 175.720,157.793 176.316 C 158.027 177.248,160.984 185.022,162.008 187.400 C 162.198 187.840,162.915 189.550,163.601 191.200 C 165.698 196.241,166.843 198.906,167.843 201.075 C 168.369 202.217,168.800 203.306,168.800 203.497 C 168.800 203.687,169.232 204.733,169.760 205.821 C 170.287 206.910,171.024 208.520,171.395 209.400 C 171.767 210.280,172.776 212.440,173.636 214.201 C 174.496 215.961,175.200 217.606,175.200 217.856 C 175.200 218.107,175.920 219.543,176.800 221.049 C 177.680 222.555,178.400 223.906,178.400 224.051 C 178.400 225.341,186.458 237.625,186.744 236.769 C 186.824 236.527,186.333 235.579,185.651 234.664 C 182.691 230.692,180.965 227.793,178.825 223.200 C 178.104 221.652,176.104 218.010,175.683 217.478 C 175.475 217.215,175.184 216.330,175.036 215.512 C 174.889 214.693,174.325 213.497,173.784 212.854 C 173.243 212.211,172.800 211.402,172.800 211.056 C 172.800 210.710,172.031 208.846,171.091 206.914 C 170.151 204.981,168.863 202.050,168.230 200.400 C 167.137 197.553,165.905 194.733,163.761 190.167 C 163.236 189.049,162.684 187.521,162.534 186.771 C 162.384 186.021,161.693 184.236,160.997 182.804 C 160.302 181.372,159.411 179.120,159.019 177.800 C 158.626 176.480,158.095 175.220,157.839 175.000 C 157.583 174.780,157.136 173.790,156.846 172.800 C 156.556 171.810,155.992 170.190,155.592 169.200 C 155.192 168.210,154.565 166.590,154.199 165.600 C 152.156 160.069,146.768 149.600,145.965 149.600 C 145.764 149.600,145.599 149.375,145.598 149.100 C 145.597 148.825,145.100 148.060,144.493 147.400 C 143.886 146.740,142.419 145.075,141.234 143.700 C 140.050 142.325,138.903 141.200,138.686 141.200 C 138.469 141.200,137.888 140.795,137.395 140.300 C 135.315 138.213,134.411 137.582,133.142 137.334 C 132.404 137.189,130.910 136.475,129.823 135.747 L 127.846 134.424 129.223 133.849 C 137.168 130.532,161.924 128.809,175.600 130.621 C 179.561 131.146,187.881 133.609,190.600 135.062 C 191.260 135.415,192.746 136.200,193.903 136.807 C 195.059 137.414,196.579 138.471,197.279 139.155 C 197.979 139.840,198.722 140.400,198.930 140.400 C 199.138 140.400,199.699 140.805,200.176 141.300 C 201.001 142.157,203.257 144.311,204.677 145.600 C 206.294 147.067,209.600 150.964,209.600 151.404 C 209.600 151.572,210.321 152.493,211.202 153.448 C 212.083 154.404,213.199 155.999,213.682 156.993 C 214.164 157.987,214.704 158.800,214.880 158.800 C 215.056 158.800,215.200 158.984,215.200 159.208 C 215.200 159.432,215.689 160.377,216.288 161.308 C 217.459 163.131,220.362 168.800,220.386 169.311 C 220.394 169.483,221.002 170.923,221.739 172.511 C 222.475 174.100,223.384 176.075,223.758 176.900 C 224.132 177.725,224.539 178.400,224.663 178.400 C 225.124 178.400,224.309 175.388,223.765 175.080 C 223.454 174.904,223.200 174.524,223.200 174.235 C 223.200 172.516,216.887 160.182,213.900 156.065 C 213.075 154.928,212.400 153.908,212.400 153.798 C 212.400 151.154,193.917 134.400,191.000 134.400 C 190.902 134.400,189.872 133.975,188.711 133.455 C 180.865 129.944,163.766 128.293,148.800 129.601 M238.200 131.615 C 236.220 131.791,233.340 132.128,231.800 132.365 C 230.260 132.601,227.290 133.055,225.200 133.374 C 212.380 135.327,205.709 137.406,209.801 138.174 C 213.567 138.880,223.924 144.663,224.738 146.513 C 224.814 146.686,225.644 147.547,226.584 148.428 C 229.447 151.112,232.814 156.113,236.881 163.726 L 237.562 165.000 237.581 163.887 C 237.592 163.253,237.342 162.676,237.000 162.545 C 236.670 162.418,236.400 162.126,236.400 161.897 C 236.400 161.141,232.717 155.066,230.157 151.600 C 226.292 146.366,222.139 142.932,215.400 139.396 C 213.420 138.357,211.723 137.436,211.629 137.349 C 211.140 136.898,213.238 136.024,214.836 136.013 C 215.846 136.006,218.080 135.640,219.800 135.200 C 221.520 134.760,223.262 134.400,223.669 134.400 C 224.077 134.400,224.723 134.236,225.105 134.035 C 225.487 133.833,227.960 133.449,230.600 133.181 C 237.050 132.524,236.898 132.546,237.748 132.190 C 238.815 131.744,260.566 132.262,263.200 132.796 C 268.822 133.936,271.139 134.367,272.865 134.594 C 273.942 134.735,274.823 135.083,274.952 135.419 C 275.075 135.739,275.474 136.000,275.840 136.000 C 276.206 136.000,277.108 136.372,277.844 136.827 C 278.606 137.298,279.661 137.597,280.292 137.522 C 281.473 137.379,278.937 135.941,276.422 135.327 C 275.860 135.189,275.298 134.922,275.173 134.732 C 273.830 132.697,249.305 130.630,238.200 131.615 M282.284 138.330 C 283.300 139.366,285.775 140.800,286.547 140.800 C 286.906 140.800,287.200 140.971,287.200 141.181 C 287.200 141.390,288.038 142.138,289.062 142.842 C 291.449 144.485,291.925 144.887,295.046 147.900 C 296.470 149.275,297.807 150.400,298.018 150.400 C 298.228 150.400,298.400 150.587,298.400 150.816 C 298.400 151.343,299.810 153.304,301.525 155.164 C 302.254 155.954,303.416 157.410,304.109 158.400 C 304.801 159.390,305.681 160.541,306.066 160.957 C 306.451 161.373,307.134 162.498,307.585 163.457 C 308.035 164.416,308.552 165.200,308.734 165.200 C 308.915 165.200,309.485 166.100,310.000 167.200 C 310.910 169.142,312.400 170.948,312.400 170.108 C 312.400 169.214,304.677 157.554,301.997 154.400 C 300.968 153.190,299.963 151.910,299.764 151.556 C 298.697 149.664,289.056 141.664,284.272 138.700 C 282.238 137.440,281.228 137.252,282.284 138.330 M124.800 148.165 C 124.800 148.535,125.250 149.255,125.800 149.765 C 126.350 150.275,126.800 150.814,126.800 150.964 C 126.800 151.114,127.845 152.983,129.123 155.118 C 130.401 157.253,131.857 159.855,132.359 160.900 C 132.861 161.945,133.435 162.800,133.636 162.800 C 133.836 162.800,134.000 163.145,134.000 163.567 C 134.000 164.670,135.417 167.817,136.322 168.722 C 136.746 169.146,137.212 170.288,137.358 171.260 C 137.504 172.231,137.947 173.560,138.344 174.213 C 138.740 174.866,139.196 175.940,139.357 176.600 C 139.730 178.128,142.254 185.419,142.959 187.000 C 143.252 187.660,144.002 189.910,144.625 192.000 C 145.247 194.090,145.884 195.980,146.040 196.200 C 146.195 196.420,146.721 197.915,147.207 199.523 C 147.694 201.131,148.520 203.291,149.044 204.323 C 149.568 205.355,149.997 206.644,149.998 207.187 C 150.001 208.536,151.174 211.620,152.067 212.626 C 152.470 213.080,152.800 213.839,152.800 214.312 C 152.800 214.786,153.700 217.058,154.800 219.361 C 155.900 221.665,156.800 223.820,156.800 224.151 C 156.800 224.482,156.960 224.852,157.156 224.973 C 157.351 225.094,157.634 225.680,157.783 226.276 C 157.933 226.872,158.673 228.414,159.428 229.701 C 160.182 230.989,160.800 232.230,160.800 232.458 C 160.800 232.687,161.160 233.331,161.600 233.891 C 162.786 235.398,162.574 234.457,161.029 231.354 C 158.980 227.239,156.557 221.932,156.209 220.800 C 156.040 220.250,155.761 219.620,155.588 219.400 C 155.415 219.180,154.792 217.740,154.205 216.200 C 153.617 214.660,152.901 212.950,152.614 212.400 C 152.327 211.850,150.958 208.070,149.573 204.000 C 147.190 197.001,144.382 188.918,143.877 187.600 C 143.750 187.270,142.807 184.570,141.781 181.600 C 140.756 178.630,139.395 174.962,138.758 173.448 C 138.121 171.935,137.600 170.459,137.600 170.168 C 137.600 169.877,136.321 167.167,134.757 164.146 C 133.194 161.125,131.726 158.281,131.495 157.826 C 130.675 156.211,130.421 155.768,128.733 153.000 C 127.793 151.460,126.923 150.110,126.799 150.000 C 126.674 149.890,126.174 149.281,125.686 148.646 C 125.046 147.813,124.800 147.679,124.800 148.165 M75.200 161.245 C 75.200 161.516,75.452 162.021,75.760 162.369 C 76.068 162.716,76.799 164.170,77.385 165.600 C 77.971 167.030,78.686 168.740,78.974 169.400 C 79.263 170.060,79.822 171.500,80.218 172.600 C 80.614 173.700,81.062 174.780,81.215 175.000 C 81.367 175.220,82.069 176.930,82.774 178.800 C 85.132 185.053,86.087 187.396,86.473 187.874 C 86.683 188.135,87.008 188.855,87.193 189.474 L 87.531 190.600 87.566 189.380 C 87.585 188.709,87.397 187.957,87.148 187.708 C 86.899 187.459,86.377 186.388,85.987 185.328 C 85.597 184.268,84.798 182.140,84.212 180.600 C 83.626 179.060,82.998 177.350,82.817 176.800 C 82.635 176.250,82.199 175.260,81.846 174.600 C 81.493 173.940,81.204 173.149,81.202 172.842 C 81.201 172.535,80.390 170.517,79.400 168.358 C 78.410 166.198,77.600 164.047,77.600 163.578 C 77.600 163.062,77.284 162.643,76.800 162.516 C 76.360 162.401,76.000 162.068,76.000 161.777 C 76.000 161.486,75.820 161.136,75.600 161.000 C 75.380 160.864,75.200 160.974,75.200 161.245 M237.600 165.501 C 237.600 165.764,238.108 167.109,238.730 168.490 C 239.351 169.870,240.092 171.630,240.377 172.400 C 240.662 173.170,241.233 174.563,241.647 175.496 C 242.061 176.428,242.400 177.306,242.400 177.446 C 242.400 177.652,243.945 181.474,246.425 187.400 C 248.745 192.942,249.972 196.126,250.392 197.692 C 250.671 198.733,251.147 199.790,251.450 200.041 C 251.752 200.292,252.000 200.764,252.000 201.089 C 252.000 201.413,252.256 202.246,252.568 202.940 C 252.881 203.633,254.395 207.170,255.932 210.800 C 257.470 214.430,259.375 218.805,260.164 220.522 C 260.954 222.239,261.600 223.904,261.600 224.222 C 261.600 224.540,261.767 224.800,261.971 224.800 C 262.175 224.800,262.428 225.115,262.534 225.500 C 262.640 225.885,262.632 225.444,262.515 224.519 C 262.398 223.590,261.089 220.421,259.586 217.429 C 258.091 214.453,256.745 211.430,256.595 210.709 C 256.444 209.989,256.030 208.950,255.674 208.400 C 255.027 207.399,254.620 206.381,252.654 200.832 C 252.075 199.200,251.347 197.580,251.035 197.232 C 250.723 196.885,250.336 195.890,250.175 195.023 C 250.014 194.156,249.099 191.758,248.141 189.695 C 247.183 187.632,246.400 185.690,246.400 185.380 C 246.400 185.069,245.709 183.327,244.864 181.508 C 244.020 179.688,243.091 177.435,242.800 176.500 C 242.510 175.565,242.121 174.800,241.936 174.800 C 241.751 174.800,241.600 174.271,241.600 173.624 C 241.600 172.977,241.440 172.348,241.244 172.227 C 241.048 172.106,240.406 170.804,239.818 169.334 C 238.717 166.584,237.600 164.654,237.600 165.501 M312.400 171.373 C 312.400 172.388,313.631 174.837,314.263 175.080 C 314.558 175.193,314.800 175.686,314.800 176.175 C 314.800 176.664,315.249 177.950,315.797 179.032 C 316.345 180.114,317.246 182.308,317.798 183.908 C 318.351 185.507,318.974 187.127,319.183 187.508 C 319.392 187.888,319.825 189.100,320.146 190.200 C 320.467 191.300,321.181 193.460,321.732 195.000 C 322.284 196.540,322.838 198.273,322.963 198.852 C 323.095 199.461,323.540 199.996,324.018 200.121 C 324.608 200.275,324.743 200.202,324.490 199.869 C 324.092 199.344,323.874 198.774,321.791 192.800 C 320.986 190.490,320.168 188.240,319.974 187.800 C 319.779 187.360,319.240 185.920,318.775 184.600 C 318.310 183.280,317.690 181.660,317.396 181.000 C 317.103 180.340,316.504 178.900,316.066 177.800 C 315.367 176.044,312.969 171.291,312.552 170.833 C 312.468 170.742,312.400 170.984,312.400 171.373 M224.957 180.100 C 225.092 180.815,225.648 182.480,226.192 183.800 C 226.736 185.120,227.185 186.515,227.191 186.900 C 227.196 187.285,227.380 187.600,227.600 187.600 C 227.820 187.600,228.004 188.005,228.009 188.500 C 228.014 188.995,228.389 190.210,228.844 191.200 C 229.641 192.938,230.850 196.627,231.366 198.900 C 231.503 199.505,231.792 200.000,232.008 200.000 C 232.223 200.000,232.400 200.302,232.400 200.671 C 232.400 201.497,234.761 208.056,235.247 208.580 C 235.441 208.789,235.600 209.350,235.600 209.826 C 235.600 210.302,235.935 211.121,236.344 211.646 C 236.753 212.171,237.220 213.500,237.382 214.600 C 237.544 215.700,237.927 217.050,238.233 217.600 C 238.869 218.744,239.961 221.723,240.285 223.200 C 240.406 223.750,240.727 224.470,240.999 224.800 C 241.270 225.130,241.605 225.876,241.743 226.458 C 241.881 227.040,242.803 229.200,243.792 231.258 C 244.781 233.316,245.592 235.201,245.595 235.446 C 245.598 235.691,245.935 236.321,246.345 236.846 C 246.755 237.371,247.215 238.250,247.368 238.800 C 247.844 240.511,248.907 242.800,249.226 242.800 C 249.393 242.800,249.655 243.565,249.807 244.500 C 249.960 245.435,250.426 246.761,250.842 247.447 C 251.259 248.133,251.600 248.966,251.600 249.298 C 251.600 249.630,251.869 250.125,252.198 250.398 C 253.342 251.348,253.839 253.937,252.996 254.554 C 250.617 256.293,228.593 256.238,221.200 254.475 C 218.450 253.819,215.480 253.166,214.600 253.024 C 212.757 252.727,208.882 251.298,208.000 250.590 C 207.670 250.325,206.723 250.005,205.896 249.879 C 205.069 249.752,204.102 249.359,203.748 249.006 C 203.395 248.652,201.894 247.752,200.414 247.007 C 198.934 246.262,197.200 245.219,196.562 244.690 C 195.923 244.161,195.099 243.564,194.732 243.364 C 194.364 243.164,193.104 242.099,191.932 240.997 C 189.310 238.534,186.931 236.791,187.445 237.709 C 189.458 241.305,201.787 249.373,209.600 252.207 C 220.785 256.263,240.487 257.671,253.500 255.343 C 255.230 255.034,254.971 252.866,252.814 249.600 C 252.135 248.572,250.000 243.748,250.000 243.241 C 250.000 242.975,249.647 242.093,249.216 241.279 C 248.291 239.535,247.832 238.562,244.932 232.200 C 243.098 228.176,239.939 220.003,237.125 212.000 C 236.776 211.010,235.737 208.130,234.815 205.600 C 233.892 203.070,232.726 199.830,232.224 198.400 C 230.237 192.747,228.733 188.562,228.414 187.800 C 228.230 187.360,227.409 185.155,226.590 182.900 C 225.071 178.722,224.516 177.770,224.957 180.100 M87.601 191.220 C 87.602 191.539,87.932 192.340,88.334 193.000 C 88.737 193.660,89.566 195.460,90.178 197.000 C 90.790 198.540,91.428 199.980,91.596 200.200 C 91.764 200.420,92.040 201.050,92.209 201.600 C 92.379 202.150,93.481 204.643,94.658 207.141 C 95.836 209.639,96.800 211.746,96.800 211.823 C 96.800 211.901,97.520 212.992,98.400 214.249 C 99.280 215.505,100.000 216.740,100.000 216.993 C 100.000 218.403,111.979 231.200,113.300 231.200 C 113.496 231.200,114.461 231.754,115.445 232.431 C 117.732 234.005,125.298 237.600,126.322 237.600 C 126.751 237.600,127.784 237.885,128.616 238.233 C 136.832 241.665,164.400 241.937,164.400 238.585 C 164.400 238.043,164.221 237.600,164.001 237.600 C 163.782 237.600,163.346 237.015,163.034 236.300 C 162.477 235.027,162.465 235.022,162.433 236.051 C 162.415 236.629,162.670 237.326,163.000 237.600 C 164.472 238.822,163.125 239.514,158.521 239.903 C 153.526 240.324,138.475 240.159,137.886 239.677 C 137.619 239.458,136.140 239.148,134.600 238.989 C 133.060 238.830,131.333 238.462,130.763 238.172 C 130.192 237.882,128.752 237.521,127.563 237.370 C 126.373 237.220,125.130 236.864,124.800 236.581 C 124.470 236.297,122.287 235.150,119.948 234.031 C 117.610 232.913,115.473 231.729,115.199 231.399 C 114.926 231.070,114.395 230.800,114.019 230.800 C 113.644 230.800,111.950 229.495,110.256 227.900 C 106.171 224.053,106.424 224.319,104.600 221.946 C 103.720 220.801,102.418 219.249,101.706 218.498 C 100.994 217.746,100.206 216.445,99.955 215.607 C 99.703 214.768,99.071 213.621,98.549 213.058 C 98.027 212.495,97.600 211.927,97.600 211.795 C 97.600 211.562,95.159 206.321,92.759 201.400 C 92.115 200.080,91.591 198.788,91.594 198.530 C 91.601 197.949,88.548 191.588,87.999 191.039 C 87.734 190.774,87.601 190.834,87.601 191.220 M324.983 203.360 C 325.103 204.437,325.371 205.524,325.578 205.774 C 325.785 206.023,326.761 208.595,327.747 211.487 C 329.296 216.037,331.672 222.397,332.795 225.000 C 332.985 225.440,333.223 226.250,333.324 226.800 C 333.600 228.292,335.925 234.426,336.614 235.478 C 336.944 235.982,337.325 237.203,337.461 238.193 C 337.597 239.182,337.953 240.195,338.254 240.445 C 338.554 240.694,338.800 241.081,338.800 241.305 C 338.800 241.941,342.743 249.918,343.196 250.198 C 343.418 250.335,343.600 250.830,343.600 251.297 C 343.600 251.765,343.952 252.879,344.382 253.774 C 344.812 254.668,345.881 257.020,346.759 259.000 C 347.643 260.996,348.632 262.658,348.977 262.729 C 349.335 262.804,349.623 263.314,349.654 263.929 C 349.705 264.928,349.721 264.937,349.887 264.060 C 350.003 263.452,349.772 262.847,349.233 262.345 C 348.775 261.918,348.400 261.389,348.400 261.169 C 348.400 260.950,347.500 258.876,346.400 256.561 C 345.300 254.246,344.400 252.266,344.400 252.159 C 344.400 251.969,343.206 249.343,340.558 243.711 C 339.811 242.123,339.200 240.726,339.200 240.607 C 339.200 240.488,338.867 239.628,338.460 238.696 C 337.346 236.143,336.255 233.236,333.845 226.400 C 332.642 222.990,330.640 217.410,329.396 214.000 C 328.151 210.590,326.886 207.080,326.585 206.200 C 326.284 205.320,325.751 203.880,325.401 203.000 L 324.764 201.400 324.983 203.360 M262.852 226.650 C 263.799 228.823,268.261 237.432,268.493 237.533 C 268.662 237.607,268.800 237.859,268.800 238.094 C 268.800 238.714,272.298 244.698,273.864 246.758 C 274.917 248.143,275.200 248.339,275.200 247.686 C 275.200 247.230,274.885 246.552,274.500 246.179 C 273.666 245.370,271.556 242.066,270.376 239.720 C 269.911 238.797,269.277 237.830,268.966 237.571 C 268.654 237.313,268.390 236.809,268.378 236.451 C 268.343 235.432,263.823 226.674,263.230 226.477 C 262.939 226.380,262.769 226.457,262.852 226.650 M275.277 249.152 C 275.570 249.840,282.750 256.183,286.119 258.730 C 293.385 264.224,300.631 267.602,310.655 270.170 C 321.207 272.873,352.400 272.717,352.400 269.961 C 352.400 268.821,350.207 265.024,350.073 265.933 C 349.998 266.446,350.220 267.180,350.568 267.564 C 351.469 268.560,351.349 269.791,350.300 270.308 C 348.016 271.432,328.211 272.044,321.716 271.191 C 313.025 270.049,311.093 269.652,305.924 267.947 C 304.012 267.316,302.157 266.800,301.803 266.800 C 301.168 266.800,296.561 264.583,293.367 262.742 C 289.184 260.330,283.782 256.187,280.200 252.646 C 278.113 250.582,274.923 248.318,275.277 249.152 " stroke="none" fill="#8ff4cb" fill-rule="evenodd"></path><path id="path4" d="M70.304 127.999 C 66.262 128.517,60.310 129.646,56.400 130.637 C 54.310 131.166,51.790 131.800,50.800 132.046 C 48.327 132.661,47.800 132.971,47.800 133.811 C 47.800 134.665,49.776 135.925,51.200 135.980 C 51.750 136.000,52.985 136.374,53.944 136.809 C 55.975 137.731,56.932 137.826,55.838 136.998 C 55.418 136.680,54.068 136.139,52.838 135.795 C 46.929 134.143,47.384 133.506,56.091 131.245 C 76.076 126.056,101.206 127.662,112.000 134.818 C 112.330 135.036,113.410 135.704,114.400 136.301 C 116.531 137.587,124.602 145.546,124.979 146.734 C 125.123 147.188,125.755 148.109,126.383 148.782 C 127.451 149.925,133.192 159.634,133.844 161.400 C 134.007 161.840,134.378 162.344,134.670 162.520 C 134.961 162.696,135.201 163.056,135.202 163.320 C 135.202 163.584,135.742 164.880,136.400 166.200 C 137.154 167.711,137.598 168.280,137.598 167.737 C 137.600 166.988,135.797 162.961,135.210 162.400 C 135.094 162.290,134.627 161.480,134.172 160.600 C 130.474 153.458,126.743 147.417,125.809 147.059 C 125.474 146.930,125.200 146.504,125.200 146.112 C 125.200 145.214,117.502 137.200,116.639 137.200 C 116.287 137.200,116.000 137.033,116.000 136.830 C 116.000 135.769,108.315 132.167,101.000 129.800 C 95.212 127.927,78.512 126.947,70.304 127.999 M150.152 128.375 C 149.958 128.550,147.460 128.916,144.600 129.188 C 137.815 129.833,138.148 129.782,137.533 130.271 C 137.240 130.505,135.830 130.793,134.400 130.911 C 132.970 131.030,130.900 131.404,129.800 131.743 C 128.700 132.082,126.737 132.597,125.438 132.888 C 121.782 133.708,121.469 135.950,125.006 135.987 C 125.669 135.994,126.884 136.360,127.704 136.800 C 128.525 137.240,129.603 137.596,130.099 137.591 C 131.283 137.580,128.178 136.150,125.630 135.534 C 123.701 135.067,122.884 134.583,123.308 134.158 C 123.711 133.756,134.464 131.222,135.820 131.211 C 136.491 131.205,137.211 131.046,137.420 130.858 C 137.629 130.671,139.690 130.296,142.000 130.027 C 144.310 129.757,147.404 129.371,148.877 129.169 C 152.430 128.679,170.307 128.701,173.600 129.199 C 179.304 130.061,185.253 131.438,187.400 132.394 C 187.840 132.590,188.650 132.876,189.200 133.030 C 190.060 133.272,191.923 134.317,195.023 136.296 C 195.451 136.569,196.438 137.138,197.217 137.562 C 199.354 138.723,209.170 147.960,209.194 148.832 C 209.197 148.960,209.917 149.860,210.794 150.832 C 211.671 151.804,212.391 152.818,212.394 153.084 C 212.397 153.351,212.736 153.891,213.148 154.284 C 215.190 156.238,222.852 170.560,223.447 173.534 C 223.580 174.202,223.940 174.845,224.245 174.962 C 224.550 175.079,224.821 175.676,224.846 176.287 C 224.876 177.009,224.959 177.146,225.080 176.676 C 225.184 176.277,224.983 175.350,224.634 174.615 C 224.285 173.880,224.000 173.160,224.000 173.014 C 224.000 172.462,219.736 163.598,218.082 160.712 C 215.514 156.231,214.300 154.375,213.630 153.904 C 213.237 153.627,212.773 152.952,212.600 152.405 C 212.054 150.675,201.863 139.600,200.818 139.600 C 200.577 139.600,200.218 139.172,200.019 138.650 C 199.767 137.988,199.225 137.619,198.229 137.432 C 197.443 137.284,196.800 136.996,196.800 136.790 C 196.800 136.584,196.035 136.028,195.100 135.553 C 194.165 135.079,192.890 134.264,192.266 133.743 C 191.642 133.221,190.334 132.594,189.359 132.348 C 188.384 132.102,187.489 131.744,187.370 131.551 C 187.250 131.358,186.810 131.200,186.390 131.200 C 185.971 131.200,184.857 130.953,183.914 130.652 C 182.971 130.350,180.850 129.890,179.200 129.630 C 177.550 129.369,175.570 128.954,174.800 128.707 C 173.166 128.183,150.698 127.880,150.152 128.375 M241.000 130.841 C 234.484 131.005,230.501 131.286,228.600 131.716 C 227.060 132.064,224.720 132.463,223.400 132.603 C 221.159 132.839,217.551 133.537,213.800 134.461 C 212.920 134.677,211.390 135.024,210.400 135.232 C 204.668 136.433,204.755 138.339,210.600 139.606 C 213.460 140.226,218.682 142.887,221.117 144.967 C 222.265 145.946,223.550 146.857,223.974 146.992 C 224.399 147.127,224.858 147.753,224.997 148.388 C 225.173 149.188,225.608 149.664,226.425 149.949 C 227.071 150.174,227.600 150.642,227.600 150.988 C 227.600 151.334,228.290 152.379,229.132 153.309 C 230.664 154.999,231.862 156.950,234.582 162.184 C 235.378 163.716,236.277 165.246,236.580 165.584 C 236.884 165.923,237.265 166.920,237.426 167.800 C 237.588 168.680,238.412 170.840,239.257 172.600 C 240.102 174.360,240.795 176.075,240.797 176.411 C 240.798 176.747,241.401 178.277,242.136 179.811 C 242.870 181.345,243.796 183.590,244.193 184.800 C 244.590 186.010,245.159 187.355,245.458 187.789 C 245.756 188.223,246.000 188.860,246.000 189.204 C 246.000 189.549,246.345 190.508,246.767 191.335 C 247.189 192.162,247.854 193.730,248.246 194.820 C 248.638 195.909,249.102 196.800,249.279 196.800 C 249.456 196.800,249.621 197.205,249.646 197.700 C 249.679 198.339,249.744 198.404,249.871 197.924 C 249.969 197.551,249.485 195.931,248.794 194.324 C 246.760 189.585,246.545 189.068,246.003 187.600 C 245.503 186.244,244.038 182.657,242.982 180.200 C 242.698 179.540,241.631 176.840,240.612 174.200 C 239.592 171.560,238.498 168.922,238.179 168.338 C 237.861 167.754,237.599 167.034,237.598 166.738 C 237.596 166.442,237.354 165.750,237.060 165.200 C 233.062 157.722,231.664 155.389,229.509 152.600 C 223.578 144.923,216.386 140.051,208.300 138.232 C 203.894 137.241,211.321 135.092,227.786 132.594 C 237.716 131.087,255.812 130.579,262.354 131.622 C 272.263 133.203,276.922 134.449,280.323 136.430 C 281.792 137.285,282.400 137.396,282.400 136.808 C 282.400 136.290,279.851 135.012,277.600 134.401 C 276.610 134.132,275.440 133.758,275.000 133.571 C 274.149 133.208,267.812 131.683,265.800 131.357 C 262.928 130.892,249.835 130.619,241.000 130.841 M284.514 138.355 C 285.567 139.040,286.531 139.600,286.656 139.600 C 287.077 139.600,293.365 144.677,296.508 147.555 C 299.513 150.306,301.205 151.496,299.055 149.345 C 298.475 148.765,298.000 148.162,298.000 148.004 C 298.000 147.847,296.875 146.836,295.500 145.759 C 294.125 144.682,292.077 142.990,290.949 142.000 C 288.498 139.849,285.089 137.679,283.644 137.349 C 282.872 137.172,283.098 137.434,284.514 138.355 M57.987 138.586 C 58.497 139.129,59.563 139.900,60.357 140.300 C 62.624 141.442,67.033 146.297,69.673 150.560 C 69.823 150.802,70.794 152.890,71.831 155.200 C 72.868 157.510,73.867 159.568,74.052 159.773 C 74.549 160.328,74.981 159.704,74.511 159.110 C 74.289 158.829,73.236 156.710,72.171 154.400 C 69.737 149.120,67.987 146.490,64.723 143.200 C 61.470 139.922,55.221 135.642,57.987 138.586 M131.779 138.236 C 132.129 138.586,133.356 139.510,134.507 140.289 C 135.658 141.069,137.084 142.178,137.676 142.753 C 138.268 143.329,139.142 144.160,139.619 144.600 C 140.708 145.604,145.200 151.055,145.200 151.372 C 145.200 151.501,145.740 152.352,146.400 153.263 C 147.060 154.175,147.605 155.118,147.611 155.360 C 147.617 155.602,148.182 156.520,148.867 157.400 C 151.583 160.891,147.119 152.845,143.954 148.546 C 142.410 146.447,138.447 142.400,137.937 142.400 C 137.781 142.400,137.540 142.040,137.400 141.600 C 137.260 141.160,136.950 140.800,136.709 140.800 C 136.469 140.800,135.319 140.080,134.154 139.200 C 132.057 137.617,130.547 137.004,131.779 138.236 M300.000 151.036 C 300.000 151.163,301.057 152.557,302.350 154.133 C 304.865 157.202,308.534 162.549,311.205 167.036 C 312.109 168.556,312.727 169.350,312.577 168.800 C 312.428 168.250,312.057 167.516,311.753 167.169 C 311.449 166.821,311.200 166.344,311.200 166.109 C 311.200 165.873,310.550 164.717,309.755 163.540 C 308.961 162.363,308.154 160.990,307.961 160.490 C 307.769 159.989,307.339 159.475,307.006 159.347 C 306.673 159.219,306.400 158.921,306.400 158.685 C 306.400 158.116,302.348 152.844,301.033 151.703 C 300.465 151.209,300.000 150.909,300.000 151.036 M150.021 160.651 C 150.009 161.339,150.270 162.126,150.600 162.400 C 150.930 162.674,151.200 163.117,151.200 163.385 C 151.200 163.653,151.718 164.936,152.352 166.236 C 152.986 167.536,154.008 169.950,154.623 171.600 C 155.238 173.250,155.980 174.800,156.271 175.044 C 156.562 175.288,156.800 176.017,156.800 176.664 C 156.800 177.311,156.956 178.011,157.148 178.220 C 157.339 178.429,158.282 180.580,159.242 183.000 C 160.203 185.420,161.196 187.580,161.449 187.800 C 161.701 188.020,162.004 188.470,162.122 188.800 C 162.281 189.245,162.345 189.204,162.368 188.644 C 162.386 188.228,162.163 187.688,161.873 187.444 C 161.440 187.080,160.232 184.126,157.030 175.600 C 156.906 175.270,156.639 174.730,156.436 174.400 C 156.233 174.070,155.109 171.370,153.938 168.400 C 150.894 160.681,150.049 159.008,150.021 160.651 M74.809 161.696 C 74.804 162.078,75.145 163.248,75.567 164.296 C 78.425 171.391,79.972 174.937,80.303 175.152 C 80.513 175.288,80.817 176.120,80.978 177.000 C 81.140 177.880,81.414 178.780,81.587 179.000 C 81.761 179.220,82.480 181.110,83.185 183.200 C 83.890 185.290,84.698 187.270,84.980 187.600 C 85.262 187.930,85.605 188.650,85.743 189.200 C 86.073 190.520,86.691 191.442,87.022 191.111 C 87.169 190.965,86.756 189.710,86.105 188.322 C 84.851 185.648,84.429 184.610,82.391 179.200 C 81.686 177.330,80.770 175.037,80.355 174.104 C 79.940 173.172,79.600 172.325,79.600 172.222 C 79.600 172.001,76.206 163.927,75.387 162.200 C 75.032 161.451,74.815 161.262,74.809 161.696 M137.606 169.314 C 137.603 169.707,137.876 170.449,138.213 170.963 C 138.732 171.756,141.605 179.502,143.419 185.000 C 143.921 186.524,143.947 186.543,143.964 185.400 C 143.974 184.740,143.663 183.480,143.272 182.600 C 142.882 181.720,142.121 179.650,141.581 178.000 C 141.041 176.350,140.465 174.940,140.300 174.867 C 140.135 174.793,140.000 174.291,140.000 173.751 C 140.000 172.862,139.087 170.762,138.022 169.200 C 137.671 168.686,137.611 168.703,137.606 169.314 M312.805 170.113 C 312.817 170.310,315.232 174.960,315.532 175.363 C 315.712 175.603,316.721 178.050,317.775 180.800 C 318.830 183.550,320.147 186.970,320.704 188.400 C 321.260 189.830,322.382 192.938,323.198 195.307 C 324.013 197.676,324.819 199.746,324.987 199.907 C 325.394 200.296,324.896 197.763,324.220 196.000 C 322.070 190.399,321.200 187.984,321.200 187.620 C 321.200 187.389,321.020 187.200,320.800 187.200 C 320.580 187.200,320.400 186.744,320.400 186.187 C 320.400 185.629,319.976 184.324,319.457 183.287 C 318.939 182.249,318.385 180.860,318.227 180.200 C 318.069 179.540,317.395 177.830,316.729 176.400 C 316.064 174.970,315.169 173.051,314.741 172.136 C 314.155 170.883,312.766 169.430,312.805 170.113 M225.200 178.166 C 225.200 178.284,225.726 179.529,226.369 180.933 C 227.012 182.337,227.750 184.276,228.010 185.243 C 228.269 186.209,228.594 187.180,228.731 187.400 C 229.012 187.848,229.817 190.091,231.603 195.400 C 232.270 197.380,232.980 199.360,233.181 199.800 C 233.383 200.240,234.011 201.950,234.577 203.600 C 236.502 209.207,237.580 211.564,237.591 210.189 C 237.596 209.523,237.343 208.611,237.029 208.163 C 236.715 207.715,236.065 206.100,235.583 204.574 C 235.102 203.048,234.395 201.080,234.012 200.200 C 233.629 199.320,232.824 197.070,232.224 195.200 C 231.169 191.911,230.442 189.912,229.388 187.400 C 229.111 186.740,228.755 185.585,228.596 184.834 C 228.062 182.303,225.200 176.685,225.200 178.166 M144.240 187.506 C 144.483 187.668,144.778 188.250,144.896 188.800 C 145.248 190.441,148.682 199.975,149.112 200.507 C 149.331 200.778,149.643 201.810,149.806 202.800 C 150.501 207.008,162.803 235.796,162.798 233.200 C 162.796 232.558,159.581 225.551,158.900 224.706 C 158.676 224.428,158.358 223.573,158.194 222.806 C 158.029 222.039,157.610 220.977,157.262 220.445 C 156.469 219.235,154.972 215.742,153.900 212.600 C 152.210 207.645,151.064 204.800,150.757 204.800 C 150.582 204.800,150.319 203.731,150.171 202.424 C 150.008 200.980,149.686 199.965,149.351 199.837 C 149.048 199.720,148.800 199.273,148.800 198.843 C 148.800 198.412,148.261 196.714,147.602 195.067 C 146.942 193.421,146.187 191.113,145.922 189.937 C 145.457 187.871,145.040 187.212,144.200 187.212 C 143.970 187.212,143.987 187.337,144.240 187.506 M162.400 190.721 C 162.400 191.227,162.752 192.307,163.182 193.121 C 163.612 193.934,164.368 195.680,164.863 197.000 C 165.358 198.320,165.996 199.684,166.281 200.031 C 166.567 200.379,166.800 201.010,166.800 201.435 C 166.800 201.859,167.248 203.047,167.795 204.075 C 168.342 205.102,169.140 206.834,169.569 207.922 C 169.998 209.010,170.696 210.688,171.120 211.650 C 171.544 212.613,172.217 214.176,172.617 215.124 C 173.017 216.073,173.671 217.024,174.072 217.238 C 175.006 217.739,174.993 217.395,174.027 216.037 C 173.601 215.440,173.134 214.475,172.987 213.892 C 172.841 213.309,172.469 212.623,172.161 212.367 C 171.852 212.111,171.601 211.699,171.602 211.451 C 171.603 211.203,170.588 208.660,169.346 205.800 C 168.104 202.940,166.865 200.060,166.592 199.400 C 163.378 191.622,162.401 189.598,162.400 190.721 M87.422 192.924 C 87.545 193.763,88.335 195.923,89.177 197.724 C 90.020 199.526,91.843 203.520,93.230 206.600 C 94.616 209.680,95.966 212.470,96.228 212.800 C 96.491 213.130,96.816 213.764,96.951 214.209 C 97.086 214.653,97.719 215.590,98.358 216.290 C 98.998 216.990,99.615 217.796,99.729 218.081 C 99.892 218.489,99.944 218.483,99.968 218.054 C 99.986 217.753,99.216 216.313,98.259 214.854 C 96.639 212.385,95.928 211.004,93.598 205.800 C 93.106 204.700,92.185 202.703,91.552 201.361 C 90.918 200.020,90.400 198.821,90.400 198.697 C 90.400 198.573,89.791 197.150,89.047 195.536 C 88.303 193.921,87.582 192.330,87.446 192.000 C 87.310 191.670,87.299 192.086,87.422 192.924 M250.044 199.200 C 250.034 199.530,250.290 200.149,250.613 200.576 C 250.936 201.004,251.200 201.706,251.200 202.136 C 251.200 202.567,251.637 203.838,252.171 204.960 C 252.705 206.082,253.543 208.080,254.035 209.400 C 254.526 210.720,255.138 212.070,255.395 212.400 C 255.652 212.730,256.093 213.810,256.376 214.800 C 256.659 215.790,257.204 217.050,257.587 217.600 C 257.971 218.150,258.834 220.034,259.505 221.788 C 260.176 223.541,260.919 225.040,261.156 225.119 C 261.724 225.308,260.939 223.128,258.879 218.800 C 257.989 216.930,256.997 214.680,256.673 213.800 C 256.350 212.920,255.148 210.040,254.002 207.400 C 252.856 204.760,251.826 202.150,251.713 201.600 C 251.600 201.050,251.287 200.420,251.019 200.200 C 250.750 199.980,250.425 199.530,250.296 199.200 C 250.089 198.667,250.061 198.667,250.044 199.200 M325.200 201.671 C 325.200 201.984,325.360 202.411,325.555 202.620 C 325.750 202.829,326.753 205.340,327.782 208.200 C 328.812 211.060,330.706 216.280,331.991 219.800 C 333.276 223.320,334.781 227.550,335.335 229.200 C 336.865 233.762,337.565 235.257,337.582 234.000 C 337.589 233.450,337.364 232.550,337.081 232.000 C 336.798 231.450,336.158 229.830,335.659 228.400 C 335.160 226.970,334.612 225.440,334.441 225.000 C 334.271 224.560,333.730 223.030,333.240 221.600 C 331.858 217.566,330.396 213.481,330.019 212.600 C 329.831 212.160,328.919 209.600,327.993 206.911 C 326.463 202.467,325.200 200.098,325.200 201.671 M238.648 215.116 C 239.214 216.592,239.823 218.250,240.001 218.800 C 240.935 221.682,243.779 228.780,244.938 231.123 C 245.667 232.596,246.504 234.430,246.799 235.200 C 247.093 235.970,247.517 236.838,247.740 237.129 C 248.289 237.844,249.996 242.071,249.998 242.721 C 249.999 243.008,250.454 243.908,251.009 244.721 C 251.563 245.535,252.198 246.867,252.419 247.682 C 252.640 248.497,253.083 249.426,253.402 249.745 C 254.155 250.497,255.722 254.679,255.429 255.153 C 254.232 257.090,225.497 257.124,218.600 255.197 C 217.940 255.012,216.410 254.655,215.200 254.403 C 213.990 254.151,212.640 253.802,212.200 253.628 C 211.760 253.453,210.680 253.080,209.800 252.799 C 208.920 252.517,206.733 251.592,204.940 250.743 C 203.147 249.894,201.585 249.200,201.469 249.200 C 200.704 249.200,192.544 243.229,189.604 240.518 C 189.056 240.013,188.466 239.600,188.291 239.600 C 188.117 239.600,187.811 239.195,187.612 238.700 C 187.318 237.967,187.246 237.935,187.225 238.529 C 187.188 239.615,197.682 248.400,199.017 248.400 C 199.322 248.400,199.765 248.760,200.000 249.200 C 200.240 249.648,200.838 250.000,201.359 250.000 C 201.871 250.000,203.690 250.721,205.402 251.601 C 207.114 252.482,209.254 253.402,210.158 253.645 C 211.061 253.889,212.160 254.236,212.600 254.416 C 213.533 254.798,217.964 255.744,222.800 256.593 C 229.537 257.776,255.126 257.014,255.997 255.604 C 256.527 254.747,255.114 250.206,254.210 249.859 C 253.916 249.746,253.546 249.057,253.389 248.327 C 253.034 246.685,251.855 244.310,251.071 243.659 C 250.748 243.391,250.368 242.552,250.226 241.796 C 249.984 240.506,249.234 238.574,248.442 237.200 C 247.258 235.144,242.793 224.971,241.859 222.200 C 239.430 214.998,238.573 212.798,238.126 212.627 C 237.801 212.502,237.989 213.397,238.648 215.116 M174.816 218.874 C 174.796 219.703,175.536 221.709,175.966 221.992 C 176.140 222.106,176.999 223.640,177.876 225.400 C 180.044 229.755,181.736 232.532,183.897 235.282 C 186.733 238.892,186.685 238.006,183.834 234.100 C 182.429 232.175,180.156 228.440,178.784 225.800 C 177.413 223.160,175.962 220.370,175.561 219.600 C 175.146 218.802,174.825 218.490,174.816 218.874 M100.000 218.988 C 100.000 219.310,104.040 224.529,104.572 224.894 C 105.796 225.734,105.366 224.904,103.183 222.211 C 100.865 219.352,100.000 218.476,100.000 218.988 M106.000 225.735 C 106.000 226.291,110.833 231.200,111.379 231.200 C 111.576 231.200,112.021 231.457,112.369 231.770 C 113.880 233.136,122.468 237.597,123.501 237.554 C 124.227 237.523,124.353 237.443,123.873 237.319 C 120.724 236.504,110.733 230.252,108.055 227.421 C 106.925 226.226,106.000 225.467,106.000 225.735 M262.400 227.553 C 262.400 229.075,271.351 245.765,273.313 247.900 C 274.815 249.536,274.903 248.835,273.438 246.900 C 271.782 244.713,267.827 237.695,264.822 231.609 C 262.625 227.162,262.400 226.785,262.400 227.553 M162.800 234.345 C 162.800 234.589,163.351 235.683,164.023 236.776 C 165.567 239.285,165.232 240.245,162.699 240.568 C 149.834 242.206,134.425 241.194,127.451 238.253 C 126.599 237.894,125.609 237.604,125.251 237.609 C 124.217 237.623,127.962 239.194,130.600 239.853 C 131.920 240.183,133.630 240.613,134.400 240.809 C 137.741 241.658,150.358 242.125,156.343 241.621 C 159.564 241.349,162.380 241.165,162.600 241.211 C 163.596 241.420,164.431 241.133,165.184 240.325 C 166.039 239.407,166.301 237.600,165.580 237.600 C 165.348 237.600,164.909 237.001,164.603 236.268 C 164.012 234.855,162.800 233.562,162.800 234.345 M337.654 236.276 C 337.625 236.758,337.795 237.273,338.033 237.420 C 338.271 237.568,338.789 238.433,339.184 239.344 C 339.579 240.255,340.354 241.990,340.906 243.200 C 341.459 244.410,342.306 246.300,342.790 247.400 C 343.273 248.500,343.999 250.120,344.402 251.000 C 347.588 257.946,349.200 261.639,349.200 261.989 C 349.200 262.215,349.361 262.400,349.558 262.400 C 350.192 262.400,349.353 259.897,347.479 256.200 C 346.476 254.220,345.535 252.112,345.388 251.516 C 345.242 250.920,344.869 250.223,344.561 249.967 C 344.252 249.711,344.000 249.241,344.000 248.922 C 344.000 248.603,343.111 246.420,342.025 244.071 C 340.938 241.722,339.930 239.311,339.785 238.714 C 339.639 238.117,339.190 237.524,338.786 237.395 C 338.381 237.267,337.974 236.766,337.880 236.281 L 337.709 235.400 337.654 236.276 M276.038 251.236 C 276.829 252.206,279.439 254.656,281.838 256.680 C 284.237 258.704,286.597 260.715,287.082 261.148 C 287.567 261.581,288.647 262.175,289.482 262.468 C 290.317 262.760,291.360 263.327,291.800 263.727 C 292.707 264.552,300.391 268.400,301.130 268.400 C 301.396 268.400,303.186 268.930,305.107 269.577 C 313.295 272.337,323.418 273.481,335.364 272.996 C 339.784 272.816,345.241 272.632,347.492 272.586 C 352.641 272.481,353.821 271.902,353.450 269.661 C 353.318 268.857,353.207 267.886,353.204 267.501 C 353.202 267.117,352.596 266.127,351.858 265.301 C 351.120 264.476,350.414 263.530,350.290 263.200 C 350.116 262.741,350.056 262.730,350.032 263.151 C 350.014 263.455,350.525 264.625,351.167 265.751 C 353.077 269.104,353.179 270.631,351.540 271.314 C 349.871 272.009,331.861 273.036,327.583 272.680 C 314.704 271.608,311.857 271.135,305.221 268.966 C 302.923 268.215,300.916 267.600,300.761 267.600 C 300.146 267.600,293.717 264.376,292.422 263.419 C 291.665 262.858,290.834 262.400,290.577 262.400 C 289.516 262.400,281.481 255.948,278.206 252.467 C 275.596 249.692,274.076 248.828,276.038 251.236 " stroke="none" fill="#d5fcf3" fill-rule="evenodd"></path></g></svg>